<?xml version="1.0" encoding="utf-8"?>
<!-- Generator: Adobe Illustrator 27.0.0, SVG Export Plug-In . SVG Version: 6.00 Build 0)  -->
<svg version="1.1" id="Layer_1" xmlns="http://www.w3.org/2000/svg" xmlns:xlink="http://www.w3.org/1999/xlink" x="0px" y="0px"
	 viewBox="0 0 800 600" style="enable-background:new 0 0 800 600;" xml:space="preserve">
<style type="text/css">
	.st0{fill:#FEE9A6;}
	.st1{fill:#959EA9;}
	.st2{fill:#FBD670;}
	.st3{fill:#CBD0D8;}
</style>
<g>
	<path d="M521.6,300c0,30.5,0,61.1,0,91.6c0,18.8-11.6,30.5-30.2,30.5c-61.2,0-122.3,0-183.5,0c-18.3,0-30.2-11.8-30.2-30
		c0-61.5,0-123,0-184.5c0-18.2,11.9-29.9,30.2-29.9c61.2,0,122.3,0,183.5,0c18.6,0,30.2,11.8,30.2,30.5
		C521.6,238.9,521.6,269.5,521.6,300z"/>
	<path d="M108.9,271.7c0.1-6-2.1-13.8,0.9-17.6c2.8-3.6,10.9-0.9,16.7-1c10.9-0.2,21.9-0.4,32.8,0.1c5.2,0.2,5.9-1.5,5.9-6.2
		c-0.2-26.8-0.4-53.6,0-80.5c0.6-34.9,29.6-63.4,64.4-63.9c16.5-0.3,29.3,11.9,29.3,28.5c0.1,112.6,0.1,225.2,0,337.7
		c0,16.5-12.8,28.8-29.3,28.5c-34.8-0.5-63.8-29-64.4-63.9c-0.5-26.6-0.2-53.3,0-79.9c0-5-0.8-6.9-6.4-6.8
		c-15,0.5-30.1,0.1-45.1,0.2c-3.6,0-5.3-0.5-4.9-4.7c0.4-4.7,0.2-9.4,0.2-14.1c2.4-2.3,5.4-2,8.3-2c12.9-0.1,25.7,0,38.6,0
		c6.9,0,7.4-0.5,7.4-7.3c0.1-12.7,0.1-25.4,0-38.1c0-6.8-0.5-7.2-7.4-7.3c-12.9-0.1-25.7,0-38.6,0
		C114.3,273.6,111.3,274,108.9,271.7z"/>
	<path d="M690.3,328.3c-0.1,6,2.1,13.8-0.9,17.6c-2.8,3.6-10.9,0.9-16.7,1c-10.9,0.2-21.9,0.4-32.8-0.1c-5.2-0.2-5.9,1.5-5.8,6.2
		c0.2,26.8,0.5,53.7,0,80.5c-0.6,35-29.6,63.4-64.4,63.9c-16.5,0.2-29.2-12-29.2-28.5c-0.1-112.6-0.1-225.2,0-337.7
		c0-16.6,12.8-28.7,29.3-28.5c34.8,0.5,63.7,28.9,64.4,63.9c0.5,26.6,0.3,53.3,0,79.9c0,5,0.8,6.9,6.4,6.8c15-0.5,30.1-0.1,45.1-0.2
		c3.6,0,5.3,0.5,4.9,4.7c-0.4,4.7-0.2,9.4-0.2,14.1c-2.4,2.3-5.4,2-8.3,2c-12.9,0.1-25.7,0-38.6,0c-6.9,0-7.4,0.5-7.4,7.3
		c-0.1,12.7-0.1,25.4,0,38.1c0,6.8,0.5,7.2,7.4,7.3c12.9,0.1,25.7,0,38.6,0C684.9,326.4,687.9,326,690.3,328.3z"/>
	<path d="M390.1,591.3c-6-0.1-14,2.2-17.5-0.8c-3.7-3.1-1-11.4-1.1-17.3c-0.1-14.3-0.2-28.6,0.1-42.9c0.1-3.9-1.1-4.8-4.9-4.7
		c-9.7,0.3-19.5,0.1-29.3,0.1c-0.2-2.5,1.4-3.9,2.3-5.5c12.1-21.2,24.3-42.3,36.2-63.6c5.3-9.5,12.7-15.4,23.7-15.4
		c11,0,18.4,6,23.7,15.4c12.8,22.8,25.8,45.4,39.4,69.1c-10.4,0-20,0.2-29.6-0.1c-4.3-0.2-5.5,0.8-5.5,5.3c0.3,18.6,0,37.2,0.2,55.8
		c0,3.7-0.7,5.2-4.7,4.9c-4.7-0.4-9.4-0.2-14.1-0.2c-2-2-1.7-4.7-1.8-7.2c0-23.3-0.1-46.6,0-69.9c0-8.1,1.1-9.1,9.2-9.1
		c12.3,0,10.8,0.1,5.6-9.3c-5.2-9.2-10.5-18.3-15.6-27.6c-4.7-8.4-8.9-8.3-13.8,0c-6.1,10.5-11.9,21.1-17.9,31.7
		c-2.6,4.6-2.3,5,3.1,5.1c0.8,0-0.2,0,0.6,0c13.3,0.2,13.3,0.2,13.3,13.8c0,21.3,0,42.7,0,64C391.9,585.8,392.5,588.8,390.1,591.3z"
		/>
	<path d="M409.1,8.7c6,0.1,14-2.2,17.5,0.8c3.7,3.1,1,11.4,1.1,17.3c0.1,14.3,0.2,28.6-0.1,42.9c-0.1,3.9,1.1,4.8,4.8,4.7
		c9.7-0.3,19.5-0.1,29.2-0.1c0.3,2.3-1.1,3.5-1.9,5c-12.2,21.4-24.3,42.7-36.5,64c-12,21-35.2,21-47.3,0c-13-22.7-25.9-45.3-39.4-69
		c10.4,0,20-0.2,29.6,0.1c4.3,0.2,5.5-0.9,5.5-5.4c-0.3-18.6,0-37.2-0.2-55.8c0-3.7,0.7-5.2,4.7-4.9c4.7,0.4,9.4,0.2,14,0.2
		c2,2,1.7,4.7,1.8,7.2c0,23.3,0.1,46.6,0,69.8c0,8.1-1.1,9-9.2,9.1c-10.8,0.2-10.8,0.2-5.3,9.8c5,8.8,10.2,17.6,15,26.6
		c0.6,1.2,1.3,2.4,2.2,3.5c3.4,4.3,6.6,4.3,9.9-0.1c2.4-3.3,4.2-7.1,6.2-10.6c4.5-7.8,9-15.6,13.4-23.4c3-5.4,2.8-5.6-3.5-5.6
		c-13.3-0.2-13.3-0.2-13.3-13.8c0-21.3,0-42.7,0-64C407.3,14.2,406.8,11.2,409.1,8.7z"/>
	<path class="st0" d="M390.1,591.3c0-26.8,0-53.6,0.2-80.5c0-3.5-1.2-4.2-4.3-4.1c-5.4,0.2-10.8,0.1-17.1,0.1
		c8.6-15,16.6-29.5,25.1-43.7c2.6-4.4,8.7-4.4,11.3,0c8.5,14.2,16.5,28.6,25.1,43.7c-6.3,0-11.7,0.2-17.1-0.1
		c-3.1-0.1-4.4,0.6-4.3,4.1c0.2,26.8,0.1,53.6,0.2,80.5C402.8,591.3,396.5,591.3,390.1,591.3z"/>
	<path class="st0" d="M409.1,8.7c0,26.8,0,53.6-0.2,80.5c0,3.5,1.2,4.2,4.3,4.1c5.4-0.2,10.8-0.1,17.1-0.1
		c-8.6,15-16.6,29.5-25.1,43.6c-3,5-9,4.1-12.3-1.4c-7.9-13.7-15.7-27.5-24.1-42.2c6.1,0,11.6-0.2,17.1,0.1c3.1,0.1,4.4-0.6,4.3-4.1
		c-0.2-26.8-0.1-53.6-0.2-80.5C396.5,8.7,402.8,8.7,409.1,8.7z"/>
	<path class="st1" d="M108.9,271.7c16.9,0,33.9,0.3,50.8,0c4.4-0.1,5.5,1.1,5.4,5.5c-0.3,15.4-0.2,30.8,0,46.3
		c0.1,3.8-1,4.9-4.8,4.9c-17.1-0.2-34.3,0-51.4,0C108.9,309.4,108.9,290.6,108.9,271.7z"/>
	<path class="st1" d="M690.3,328.3c-16.9,0-33.9-0.3-50.8,0c-4.4,0.1-5.5-1.1-5.4-5.5c0.3-15.4,0.2-30.8,0-46.3
		c-0.1-3.8,1-4.9,4.8-4.9c17.1,0.2,34.3,0,51.4,0C690.3,290.6,690.3,309.4,690.3,328.3z"/>
	<path class="st2" d="M399.4,328.2c-32.6,0-65.2-0.1-97.9,0.1c-4,0-5.3-0.7-5.2-5c0.3-15.7,0.2-31.3,0-47c0-3.5,0.7-4.6,4.5-4.6
		c65.8,0.1,131.6,0.1,197.5,0c3.4,0,4.7,0.6,4.6,4.4c-0.2,15.7-0.3,31.3,0,47c0.1,4.9-1.8,5.2-5.7,5.2
		C464.6,328.1,432,328.2,399.4,328.2z"/>
	<path class="st2" d="M399.6,347c32.6,0,65.3,0.1,97.9-0.1c4.3,0,5.6,0.9,5.5,5.4c-0.3,13.3-0.1,26.6-0.1,39.9
		c0,7.6-3.5,11.1-11.1,11.1c-61.4,0-122.7,0-184.1,0c-7.7,0-11.1-3.5-11.2-11.1c-0.1-13.3,0.2-26.6-0.1-39.9
		c-0.1-4.3,0.9-5.5,5.4-5.5C334.3,347.1,366.9,347,399.6,347z"/>
	<path class="st2" d="M399.6,253c-32.6,0-65.3-0.1-97.9,0.1c-4.4,0-5.5-1.1-5.4-5.5c0.3-13.3,0.1-26.6,0.1-39.9
		c0-7.6,3.5-11.1,11.1-11.1c61.4,0,122.7,0,184.1,0c7.6,0,11.1,3.5,11.1,11.1c0.1,13.3-0.2,26.6,0.1,39.9c0.1,4.4-1,5.5-5.4,5.5
		C464.9,252.9,432.2,253,399.6,253z"/>
	<path class="st3" d="M240.1,300c0,55.2,0,110.4,0,165.6c0,10.5-4.2,14.1-14.6,12.7c-24-3.1-41.6-22.6-41.7-46.8
		c-0.1-87.7-0.1-175.4,0-263.1c0-24.2,17.7-43.8,41.7-46.8c10.4-1.3,14.6,2.3,14.6,12.8C240.1,189.6,240.1,244.8,240.1,300z"/>
	<path class="st3" d="M559.1,299.7c0-55,0-110,0-165c0-10.8,4.2-14.4,14.9-12.9c24.1,3.4,41.3,22.7,41.3,47.1
		c0.1,87.5,0.1,175,0,262.5c0,24.5-17.9,44.3-42,47.1c-10.1,1.2-14.2-2.4-14.2-12.5C559.1,410.5,559.1,355.1,559.1,299.7z"/>
	<path d="M409,299.6c0,9.8,0,9.8-9.6,9.8c-9.2,0-9.2,0-9.2-9c0-9.8,0-9.8,9.6-9.8C409,290.6,409,290.6,409,299.6z"/>
	<path d="M427.8,299.6c0-9,0-9,9.2-9c9.5,0,9.5,0,9.5,9.8c0,9,0,9-9.2,9C427.8,309.4,427.8,309.4,427.8,299.6z"/>
	<path d="M484,300.5c0,8.9,0,8.9-8.7,8.9c-10,0-10,0-10-9.9c0-8.9,0-8.9,8.7-8.9C484,290.6,484,290.6,484,300.5z"/>
	<path d="M324.2,384.6c-9,0-9,0-9-9.2c0-9.6,0-9.6,9.8-9.6c9,0,9,0,9,9.2C333.9,384.6,333.9,384.6,324.2,384.6z"/>
	<path d="M371.5,375.7c0,8.9,0,8.9-9.3,8.9c-9.5,0-9.5,0-9.5-9.3c0-9.5,0-9.5,9.3-9.5C371.5,365.8,371.5,365.8,371.5,375.7z"/>
	<path d="M399.7,365.8c9.3,0,9.3,0,9.3,9.5c0,9.3,0,9.3-9.5,9.3c-9.3,0-9.3,0-9.3-9.5C390.2,365.8,390.2,365.8,399.7,365.8z"/>
	<path d="M333.9,225.3c0,8.9,0,8.9-9.3,8.9c-9.5,0-9.5,0-9.5-9.3c0-9.5,0-9.5,9.3-9.5C333.9,215.4,333.9,215.4,333.9,225.3z"/>
	<path d="M362.6,215.4c8.9,0,8.9,0,8.9,8.7c0,10.1,0,10.1-9.9,10.1c-8.9,0-8.9,0-8.9-8.7C352.7,215.4,352.7,215.4,362.6,215.4z"/>
	<path d="M399.8,215.4c9.2,0,9.2,0,9.2,9c0,9.8,0,9.8-9.5,9.8c-9.2,0-9.2,0-9.2-9C390.2,215.4,390.2,215.4,399.8,215.4z"/>
	<path d="M211.5,234.2c-8.9,0-8.9,0-8.9-9.3c0-9.5,0-9.5,9.3-9.5c9.5,0,9.5,0,9.5,9.3C221.4,234.2,221.4,234.2,211.5,234.2z"/>
	<path d="M212.5,196.6c-9.9,0-9.9,0-9.9-10.1c0-8.7,0-8.7,8.9-8.7c9.9,0,9.9,0,9.9,10.1C221.4,196.6,221.4,196.6,212.5,196.6z"/>
	<path d="M211.4,159c-8.8,0-8.8,0-8.8-8.8c0-10,0-10,9.9-10c8.8,0,8.8,0,8.8,8.8C221.4,159,221.4,159,211.4,159z"/>
	<path d="M577.9,365.2c0-8.8,0-8.8,8.8-8.8c10,0,10,0,10,10c0,8.8,0,8.8-8.8,8.8C577.9,375.2,577.9,375.2,577.9,365.2z"/>
	<path d="M577.9,402.8c0-8.8,0-8.8,8.8-8.8c10,0,10,0,10,10c0,8.8,0,8.8-8.8,8.8C577.9,412.8,577.9,412.8,577.9,402.8z"/>
	<path d="M577.9,440.5c0-8.9,0-8.9,8.7-8.9c10.1,0,10.1,0,10.1,9.9c0,8.9,0,8.9-8.7,8.9C577.9,450.4,577.9,450.4,577.9,440.5z"/>
</g>
</svg>
