<?xml version="1.0" encoding="utf-8"?>
<!-- Generator: Adobe Illustrator 27.0.0, SVG Export Plug-In . SVG Version: 6.00 Build 0)  -->
<svg version="1.1" id="Layer_1" xmlns="http://www.w3.org/2000/svg" xmlns:xlink="http://www.w3.org/1999/xlink" x="0px" y="0px"
	 viewBox="0 0 800 600" style="enable-background:new 0 0 800 600;" xml:space="preserve">
<style type="text/css">
	.st0{fill:#1A6C60;}
	.st1{fill:#FDFDFD;}
	.st2{fill:#34A753;}
	.st3{fill:#F75445;}
	.st4{fill:#F9FBFA;}
</style>
<g>
	<path class="st0" d="M441.9,24.3c6.4,4.4,9.3,14.1,9.3,22.5c-0.1,23-11.3,46.5-3.6,68.1c7.3,20.5,29.3,31.8,50.5,36.4
		c21.2,4.6,43.5,4.6,63.9,12c19.8,7.2,37,21.3,47.9,39.4c6.3,10.6,10.7,22.7,19.8,31.1c10.2,9.4,24.4,12.6,37.4,17.4
		c14.6,5.4,28.2,13.4,40,23.5c8.6,7.3,16.8,17.2,15.5,28.3c-44.7-22.3-99.5-11.5-144,11c-16,8.1-31.2,17.6-47.8,24.3
		c-16.6,6.6-35.1,10.3-52.5,5.9c-12.1-3-23-9.8-32.1-18.2c-4.6-4.2-8.9-8.9-12.8-13.8c-3.7-4.7-6.3-10-8.6-15.5
		c-4.6-11.2-7.1-23.3-7.5-35.4c-0.4-12.1,1.2-24.3,4.9-35.9c2.9-9,7-17.6,12.4-25.4c4.9-7.2,11-16.2,6.7-23.7
		c-2.1-3.5-5.9-5.5-9.5-7.4c-43.3-23.2-74.6-67.7-81.8-116.4c-1.6-11-1.1-24.2,8.1-30.5c8-5.5,19.8-2.5,26.4,4.6s9.1,17.2,9.6,26.9
		c0.5,9.7-0.7,19.5,0,29.2c2,30.7,23.7,59.1,52.7,69.3c-27.1-27.6-39.3-69.1-31.4-107c2.3-11.1,9.4-24,20.6-22.9
		C438.1,22.3,440.1,23.1,441.9,24.3z"/>
	<path class="st1" d="M442.9,22.7c-21.7-1.3-22.3,16.2-24.3,29.7c-5,34,3.6,64.8,27,90.8c4.1,4.6,8.4,9.1,13,14.2
		c-36.9-0.4-70.4-33.4-70.7-69.2c-0.1-11.8,1.1-23.6,1.5-35.4c0.5-14.5-7.3-24.7-17.5-33.6c23.7,0,47.4,0,71,0
		C442.9,20.3,442.9,21.5,442.9,22.7z"/>
	<path class="st2" d="M398,580.9c10-70.3-33.6-116-70.8-164.4c-45.8-59.6-45.7-101.9,1.3-161.4c9-11.4,19.6-21.6,30.1-31.8
		c6.8-6.7,14.7-12.3,23.7-19.5c4,15-0.2,27.7,0,40.4c0.8,39.6,18.4,72,41.9,102.2c20.9,26.7,39.1,55.3,35,91
		C452.9,490.2,439.1,540.5,398,580.9z"/>
	<path class="st3" d="M266.7,313.7c-9.3,53.1,5.4,94.4,47.2,126.9c35.9,27.9,51.1,74.5,40.7,117c-89.6-94.4-182.8-56-277.2-6.6
		C125.3,444.5,207.8,341.1,266.7,313.7z"/>
	<path class="st4" d="M549.6,253.2c-10-2.2-28.4-2.2-27.2-15.4c1-12,17.9-17.8,32.3-15.3c10.3,1.7,24.5,5.4,23.3,15.9
		C576.8,248.8,563.2,253.4,549.6,253.2z"/>
</g>
</svg>
