<?xml version="1.0" encoding="utf-8"?>
<!-- Generator: Adobe Illustrator 27.0.0, SVG Export Plug-In . SVG Version: 6.00 Build 0)  -->
<svg version="1.1" id="Layer_1" xmlns="http://www.w3.org/2000/svg" xmlns:xlink="http://www.w3.org/1999/xlink" x="0px" y="0px"
	 viewBox="0 0 982.7 926.4" style="enable-background:new 0 0 982.7 926.4;" xml:space="preserve">
<style type="text/css">
	.st0{fill:#ADADC9;}
	.st1{clip-path:url(#SVGID_00000043456532874653385410000013911519129086470840_);}
	.st2{fill:#13BC33;stroke:#000000;stroke-width:14;stroke-miterlimit:10;}
	.st3{clip-path:url(#SVGID_00000060724444892379970910000006467805692612338858_);stroke:#000000;stroke-miterlimit:10;}
	
		.st4{clip-path:url(#SVGID_00000135658888883362941240000000975148430221779606_);fill:#C68958;stroke:#000000;stroke-miterlimit:10;}
	
		.st5{clip-path:url(#SVGID_00000111901684258026511390000005848775202899224997_);fill:#CAFEFF;stroke:#000000;stroke-miterlimit:10;}
	
		.st6{clip-path:url(#SVGID_00000067931792632936004840000007783597987679833020_);fill:#E8D6BF;stroke:#000000;stroke-miterlimit:10;}
	
		.st7{clip-path:url(#SVGID_00000115493291457710823730000011859855154756239536_);fill:#57C0C1;stroke:#000000;stroke-miterlimit:10;}
	
		.st8{clip-path:url(#SVGID_00000130628944867530144020000016873259444050424767_);fill:#F0426F;stroke:#000000;stroke-miterlimit:10;}
	
		.st9{clip-path:url(#SVGID_00000150809602606987652110000000281882271552820655_);fill:#FED0A4;stroke:#000000;stroke-miterlimit:10;}
	.st10{clip-path:url(#SVGID_00000087403343701773776260000006260877411422572469_);fill:#BB133B;}
	.st11{clip-path:url(#SVGID_00000110430001809694192480000011322539716427574656_);fill:#BB133B;}
	.st12{clip-path:url(#SVGID_00000031174190289185921410000005461921587474737851_);fill:#BB133B;}
	.st13{clip-path:url(#SVGID_00000078752804966154671740000010834136327749140657_);fill:#FFFFFF;}
	.st14{clip-path:url(#SVGID_00000114769342893223034500000017070928934371543173_);fill:#FFFFFF;}
	.st15{clip-path:url(#SVGID_00000116934105355923959120000016406811424195810488_);stroke:#000000;stroke-miterlimit:10;}
	.st16{clip-path:url(#SVGID_00000169518431000417724230000006474966601189838270_);stroke:#000000;stroke-miterlimit:10;}
	.st17{clip-path:url(#SVGID_00000134217648415117174610000013893922041051880610_);stroke:#000000;stroke-miterlimit:10;}
	.st18{clip-path:url(#SVGID_00000035527949229013632920000015867783123458879901_);stroke:#000000;stroke-miterlimit:10;}
	.st19{clip-path:url(#SVGID_00000119827687333566615280000016963981501693375644_);stroke:#000000;stroke-miterlimit:10;}
	.st20{clip-path:url(#SVGID_00000145737230952376070300000003489567235926533035_);fill:#009B1A;}
	.st21{clip-path:url(#SVGID_00000182526823543575426720000005896013952427424949_);fill:#009B1A;}
	.st22{clip-path:url(#SVGID_00000119107099346211022610000005471850969894294156_);fill:#009B1A;}
	.st23{clip-path:url(#SVGID_00000165226406983143376800000004472389285040653445_);fill:#009B1A;}
	.st24{clip-path:url(#SVGID_00000157294031450893109850000001752088187824258715_);fill:#009B1A;}
	.st25{fill:none;stroke:#000000;stroke-width:14;stroke-miterlimit:10;}
	.st26{opacity:0.82;fill:#39B8FF;stroke:#000000;stroke-width:6;stroke-miterlimit:10;enable-background:new    ;}
	.st27{fill:#FFFFFF;}
	.st28{font-family:'ChalkboardSE-Bold';}
	.st29{font-size:28.1323px;}
	.st30{fill:#57C0C1;stroke:#000000;stroke-width:4;}
	.st31{fill:#13BC33;stroke:#000000;stroke-width:4;}
	.st32{fill:#F0426F;stroke:#000000;stroke-width:3;}
	.st33{fill:none;stroke:#000000;stroke-width:8;stroke-miterlimit:10;}
</style>
<g>
	<g>
		<g>
			<g>
				<g>
					<g>
						<g>
							<circle id="SVGID_1_" class="st0" cx="491.3" cy="463.2" r="297.3"/>
						</g>
						<g>
							<defs>
								<circle id="SVGID_00000168827278534181310500000006156379221251201689_" cx="491.3" cy="463.2" r="297.3"/>
							</defs>
							<clipPath id="SVGID_00000027574355545340639490000017307794954510118074_">
								<use xlink:href="#SVGID_00000168827278534181310500000006156379221251201689_"  style="overflow:visible;"/>
							</clipPath>
							<g style="clip-path:url(#SVGID_00000027574355545340639490000017307794954510118074_);">
								<circle class="st2" cx="456.4" cy="410.9" r="71.2"/>
								<circle class="st2" cx="515.1" cy="442.5" r="71.2"/>
								<circle class="st2" cx="385.2" cy="448.2" r="71.2"/>
							</g>
						</g>
						<g>
							<defs>
								<circle id="SVGID_00000164507589749518971730000007898135061434092727_" cx="491.3" cy="463.2" r="297.3"/>
							</defs>
							<clipPath id="SVGID_00000070115843776683088380000006926873920565403567_">
								<use xlink:href="#SVGID_00000164507589749518971730000007898135061434092727_"  style="overflow:visible;"/>
							</clipPath>
							
								<path style="clip-path:url(#SVGID_00000070115843776683088380000006926873920565403567_);stroke:#000000;stroke-miterlimit:10;" d="
								M260.8,572.1c5.8,49.7,9,92.2,14.8,138c4.5,38.1,3.9,82.6,17.4,118.7c13.5,36.1,45.1,38.7,79.3,39.3
								c49.7,1.3,100,0.6,150.3,0.6h70.9c18.7,0,37.4-1.3,52.2-14.2c16.1-13.5,28.4-36.1,32.9-56.8c8.4-36.8,11.6-75.5,17.4-112.9
								c5.8-36.1,11.6-72.2,17.4-107.7c1.9-11-7.7-18.1-18.1-13.5c-6.4,2.6-12.9,4.5-20,5.8c18.7-53.5,32.9-109,41.9-165.1
								c5.8-37.4,16.1-105.1-41.3-106.4c-52.9-1.3-83.2,63.2-102.5,102.5c-7.7,15.5-14.8,31.6-21.3,47.1
								c-10.3-8.4-23.2-14.8-28.4-23.9c1.9-1.3,4.5-3.2,7.1-4.5c3.9-2.6,7.1-8.4,5.2-12.9c-5.2-15.5-11-30.3-16.1-45.8
								c-1.9-6.4-7.1-8.4-13.5-7.7c-37.4,5.8-71.6,20.6-105.8,36.1c-4.5,1.9-6.4,8.4-5.2,12.9c3.9,15.5,9,30.3,13.5,45.8
								c1.9,6.4,8.4,9.7,14.8,8.4c1.9-0.6,4.5-1.3,7.1-1.9c1.3,6.4,0.6,11.6-2.6,19.3c-3.9,9-6.4,18.1-8.4,27.1
								c-9.7-16.1-25.8-28.4-47.7-33.5c-14.8-3.2-30.3-3.2-45.1,0.6c-8.4-9-18.1-16.8-29-20.6c-11.6-3.9-21.9,12.9-12.3,20.6
								c5.2,3.9,10.3,7.1,15.5,11c-2.6,1.9-5.2,3.9-7.7,5.8c-20.6,17.4-32.9,48.4-21.3,74.2C270.4,559.8,259.5,563.7,260.8,572.1
								L260.8,572.1z"/>
						</g>
						<g>
							<defs>
								<circle id="SVGID_00000153697894184296305780000011208655077658165911_" cx="491.3" cy="463.2" r="297.3"/>
							</defs>
							<clipPath id="SVGID_00000013885280082648759060000018146029709252666810_">
								<use xlink:href="#SVGID_00000153697894184296305780000011208655077658165911_"  style="overflow:visible;"/>
							</clipPath>
							
								<path style="clip-path:url(#SVGID_00000013885280082648759060000018146029709252666810_);fill:#C68958;stroke:#000000;stroke-miterlimit:10;" d="
								M580,441.8c9-20.6,19.3-40.6,30.3-60c12.3-21.3,27.1-48.4,51.6-56.8c46.4-16.1,37.4,47.7,29,87.1
								c-25.2-5.2-53.5-3.9-74.2,12.9c-7.7,6.4,0.6,16.8,9,15.5c21.3-3.2,38.7-9,60-4.5v1.3c-1.9,9.7-4.5,19.3-6.4,29
								c-25.8-3.9-53.5-2.6-76.1,11.6c-7.7,5.2-3.2,17.4,6.4,14.8c21.9-5.8,42.6-7.7,64.5-5.2c-3.2,11-6.4,21.9-10.3,32.9
								c-25.8-7.1-60-7.1-78.7,10.3c-4.5,4.5-0.6,11,4.5,11.6c12.9,0.6,25.8-2.6,38.7-2.6c9,0,18.1,1.9,27.1,3.9
								c-3.2,9-7.1,18.1-10.3,27.1c-21.3-2.6-42.6-8.4-62.6-11.6c-15.5-1.9-29.7-1.9-43.9,0C550.3,519.2,563.2,479.8,580,441.8
								L580,441.8z"/>
						</g>
						<g>
							<defs>
								<circle id="SVGID_00000105405167566226893530000018222367400984636291_" cx="491.3" cy="463.2" r="297.3"/>
							</defs>
							<clipPath id="SVGID_00000054946308254752992630000000907673619268020919_">
								<use xlink:href="#SVGID_00000105405167566226893530000018222367400984636291_"  style="overflow:visible;"/>
							</clipPath>
							
								<path style="clip-path:url(#SVGID_00000054946308254752992630000000907673619268020919_);fill:#CAFEFF;stroke:#000000;stroke-miterlimit:10;" d="
								M527.1,455.3c6.4,3.9,11.6,9,16.8,13.5c-2.6,7.1-5.2,14.2-7.7,20.6c-7.1,7.7-12.3,14.2-24.5,14.8
								c-12.3,0.6-23.9-3.2-36.1-2.6c-11.6,1.3-22.6,5.2-32.2,12.3c1.3-10.3,3.9-21.3,8.4-32.9c3.9-9,7.1-18.1,5.2-27.7
								c-0.6-4.5-3.2-7.7-3.9-12.3c0-1.3-0.6-2.6-0.6-3.2c2.6-0.6,5.2-1.3,7.7-2.6c5.8-1.9,34.2-14.8,38.1-12.3
								c3.2,1.9,4.5,14.2,7.7,18.1C511.6,448.2,520.7,451.5,527.1,455.3L527.1,455.3z"/>
						</g>
						<g>
							<defs>
								<circle id="SVGID_00000011731509229621675290000012183969001655480727_" cx="491.3" cy="463.2" r="297.3"/>
							</defs>
							<clipPath id="SVGID_00000123403227031044745790000005153301578191624353_">
								<use xlink:href="#SVGID_00000011731509229621675290000012183969001655480727_"  style="overflow:visible;"/>
							</clipPath>
							
								<path style="clip-path:url(#SVGID_00000123403227031044745790000005153301578191624353_);fill:#E8D6BF;stroke:#000000;stroke-miterlimit:10;" d="
								M523.9,526.9c-3.2,11.6-6.4,23.9-9.7,36.1c-11.6,2.6-23.2,5.8-35.5,9c-9,2.6-18.7,4.5-27.7,5.2c-3.2-11-5.8-21.3-7.1-31.6
								c9.7-11.6,20-20.6,36.8-20.6c11.6,0,23.2,3.9,34.8,3.2C518.1,528.2,521.3,527.6,523.9,526.9L523.9,526.9z"/>
						</g>
						<g>
							<defs>
								<circle id="SVGID_00000155111709760486525670000003970355128075906212_" cx="491.3" cy="463.2" r="297.3"/>
							</defs>
							<clipPath id="SVGID_00000067945811456579564550000000089274024399137950_">
								<use xlink:href="#SVGID_00000155111709760486525670000003970355128075906212_"  style="overflow:visible;"/>
							</clipPath>
							
								<path style="clip-path:url(#SVGID_00000067945811456579564550000000089274024399137950_);fill:#57C0C1;stroke:#000000;stroke-miterlimit:10;" d="
								M426.5,429.5c-2.6-7.7-5.8-15.5-7.7-23.9c26.4-12.9,52.9-23.9,81.9-29c2.6,8.4,5.8,16.8,8.4,25.2
								C509.1,401.8,430.4,417.3,426.5,429.5L426.5,429.5z"/>
						</g>
						<g>
							<defs>
								<circle id="SVGID_00000150783512228106028290000001950990721206678189_" cx="491.3" cy="463.2" r="297.3"/>
							</defs>
							<clipPath id="SVGID_00000034086952713305147860000008386263711471896208_">
								<use xlink:href="#SVGID_00000150783512228106028290000001950990721206678189_"  style="overflow:visible;"/>
							</clipPath>
							
								<path style="clip-path:url(#SVGID_00000034086952713305147860000008386263711471896208_);fill:#F0426F;stroke:#000000;stroke-miterlimit:10;" d="
								M316.9,503.1c0.6-0.6,1.3-0.6,1.9-1.3c1.9,3.9,3.9,7.7,5.8,12.3c4.5,9,20.6,5.2,19.3-5.2c-0.6-5.2-1.3-9.7-3.2-14.8
								c10.3-1.9,21.9-1.3,31.6,1.9c33.5,10.3,42.6,47.7,33.5,78c-15.5-3.9-30.3-9.7-45.1-14.2c-21.3-5.8-43.9-11-65.1-7.7
								C296.2,532.1,298.2,515.3,316.9,503.1L316.9,503.1z"/>
						</g>
						<g>
							<defs>
								<circle id="SVGID_00000091716754083863345070000012771832687815314604_" cx="491.3" cy="463.2" r="297.3"/>
							</defs>
							<clipPath id="SVGID_00000136405180230617378820000000085571179933584267_">
								<use xlink:href="#SVGID_00000091716754083863345070000012771832687815314604_"  style="overflow:visible;"/>
							</clipPath>
							
								<path style="clip-path:url(#SVGID_00000136405180230617378820000000085571179933584267_);fill:#FED0A4;stroke:#000000;stroke-miterlimit:10;" d="
								M283.3,583c32.9-17.4,76.7,3.9,109.6,13.5c37.4,10.3,69.7,6.4,106.4-3.9c18.7-5.2,37.4-11,56.8-11c18.7,0,36.8,3.9,55.5,7.7
								c25.8,5.2,50.3,8.4,74.8,2.6c-9,58.7-30.3,194.1-32.2,202.5c-2.6,9.7-7.7,20.6-13.5,29c-15.5,21.3-40,17.4-63.2,16.8
								c-43.2-1.3-87.1-1.3-130.3-0.6H384c-16.8,0-50.3,7.1-61.9-8.4s-11.6-40.6-13.5-58.7c-3.2-23.2-5.8-45.8-9-69
								c-5.2-40-10.3-80-16.8-119.3C282.7,583,282.7,583,283.3,583L283.3,583z"/>
						</g>
						<g>
							<defs>
								<circle id="SVGID_00000145033149878609499860000009147689710087271063_" cx="491.3" cy="463.2" r="297.3"/>
							</defs>
							<clipPath id="SVGID_00000024705462831342690340000006254891735067218594_">
								<use xlink:href="#SVGID_00000145033149878609499860000009147689710087271063_"  style="overflow:visible;"/>
							</clipPath>
							<path style="clip-path:url(#SVGID_00000024705462831342690340000006254891735067218594_);fill:#BB133B;" d="M324.6,543.7
								c3.9,0,7.7-3.9,7.7-7.7c0-4.5-3.2-7.7-7.7-7.7c-3.9,0-7.7,3.9-7.7,7.7S320.1,543.7,324.6,543.7z"/>
						</g>
						<g>
							<defs>
								<circle id="SVGID_00000151513224387413335230000018077037521492607878_" cx="491.3" cy="463.2" r="297.3"/>
							</defs>
							<clipPath id="SVGID_00000003093402595272658880000004501769443333613500_">
								<use xlink:href="#SVGID_00000151513224387413335230000018077037521492607878_"  style="overflow:visible;"/>
							</clipPath>
							<path style="clip-path:url(#SVGID_00000003093402595272658880000004501769443333613500_);fill:#BB133B;" d="M363.3,527.6
								c3.9,0,7.7-3.9,7.7-7.7c0-4.5-3.2-7.7-7.7-7.7c-3.9,0-7.7,3.9-7.7,7.7C355.6,524.3,358.8,527.6,363.3,527.6z"/>
						</g>
						<g>
							<defs>
								<circle id="SVGID_00000018224926095237021040000001935518690492589700_" cx="491.3" cy="463.2" r="297.3"/>
							</defs>
							<clipPath id="SVGID_00000102519383709573860590000015909122713368236427_">
								<use xlink:href="#SVGID_00000018224926095237021040000001935518690492589700_"  style="overflow:visible;"/>
							</clipPath>
							<path style="clip-path:url(#SVGID_00000102519383709573860590000015909122713368236427_);fill:#BB133B;" d="M385.9,551.4
								c3.9,0,7.7-3.9,7.7-7.7c0-4.5-3.2-7.7-7.7-7.7c-3.9,0-7.7,3.9-7.7,7.7C378.1,547.6,381.4,551.4,385.9,551.4z"/>
						</g>
						<g>
							<defs>
								<circle id="SVGID_00000178927325794321384600000014433873139705527696_" cx="491.3" cy="463.2" r="297.3"/>
							</defs>
							<clipPath id="SVGID_00000115505787248756382490000000560171268664395140_">
								<use xlink:href="#SVGID_00000178927325794321384600000014433873139705527696_"  style="overflow:visible;"/>
							</clipPath>
							<path style="clip-path:url(#SVGID_00000115505787248756382490000000560171268664395140_);fill:#FFFFFF;" d="M456.9,572.2
								l-1.3,0.4c-0.9,0.2-1.8-0.3-2-1.2l-6.3-23c-0.2-0.9,0.3-1.8,1.2-2l1.3-0.4c0.9-0.2,1.8,0.3,2,1.2l6.3,23
								C458.3,571.1,457.8,572,456.9,572.2z"/>
						</g>
						<g>
							<defs>
								<circle id="SVGID_00000065037254093942945790000003392210894075312013_" cx="491.3" cy="463.2" r="297.3"/>
							</defs>
							<clipPath id="SVGID_00000127044436571348062510000002399807721958854067_">
								<use xlink:href="#SVGID_00000065037254093942945790000003392210894075312013_"  style="overflow:visible;"/>
							</clipPath>
							<path style="clip-path:url(#SVGID_00000127044436571348062510000002399807721958854067_);fill:#FFFFFF;" d="M466.7,448.6
								l-0.5-1.3c-0.3-0.9,0.1-1.8,1-2.1l22.4-8.1c0.9-0.3,1.8,0.1,2.1,1l0.5,1.3c0.3,0.9-0.1,1.8-1,2.1l-22.4,8.1
								C468,449.9,467,449.4,466.7,448.6z"/>
						</g>
						<g>
							<defs>
								<circle id="SVGID_00000069359882992961862710000004786023452169994907_" cx="491.3" cy="463.2" r="297.3"/>
							</defs>
							<clipPath id="SVGID_00000033337800724730136960000012650365935858727584_">
								<use xlink:href="#SVGID_00000069359882992961862710000004786023452169994907_"  style="overflow:visible;"/>
							</clipPath>
							
								<path style="clip-path:url(#SVGID_00000033337800724730136960000012650365935858727584_);stroke:#000000;stroke-miterlimit:10;" d="
								M450,800.6v4.8c0,0.4-0.3,0.7-0.7,0.7h-127c-0.4,0-0.7-0.3-0.7-0.7v-4.8c0-0.4,0.3-0.7,0.7-0.7h126.9
								C449.7,799.9,450,800.2,450,800.6z"/>
						</g>
						<g>
							<defs>
								<circle id="SVGID_00000018232143926906946960000013885230281297841331_" cx="491.3" cy="463.2" r="297.3"/>
							</defs>
							<clipPath id="SVGID_00000080911797097692924850000012480313510189047950_">
								<use xlink:href="#SVGID_00000018232143926906946960000013885230281297841331_"  style="overflow:visible;"/>
							</clipPath>
							
								<path style="clip-path:url(#SVGID_00000080911797097692924850000012480313510189047950_);stroke:#000000;stroke-miterlimit:10;" d="
								M475.5,785v4.8c0,0.4-0.3,0.7-0.7,0.7H322.3c-0.4,0-0.7-0.3-0.7-0.7V785c0-0.4,0.3-0.7,0.7-0.7h152.4
								C475.1,784.2,475.5,784.6,475.5,785z"/>
						</g>
						<g>
							<defs>
								<circle id="SVGID_00000089545076834936238200000010849503093962783626_" cx="491.3" cy="463.2" r="297.3"/>
							</defs>
							<clipPath id="SVGID_00000065032155378293965080000007022105177056991669_">
								<use xlink:href="#SVGID_00000089545076834936238200000010849503093962783626_"  style="overflow:visible;"/>
							</clipPath>
							
								<path style="clip-path:url(#SVGID_00000065032155378293965080000007022105177056991669_);stroke:#000000;stroke-miterlimit:10;" d="
								M410.2,769.3v4.8c0,0.4-0.3,0.7-0.7,0.7h-87.2c-0.4,0-0.7-0.3-0.7-0.7v-4.8c0-0.4,0.3-0.7,0.7-0.7h87.2
								C409.9,768.6,410.2,768.9,410.2,769.3z"/>
						</g>
						<g>
							<defs>
								<circle id="SVGID_00000111891375802503719130000012485151142849450655_" cx="491.3" cy="463.2" r="297.3"/>
							</defs>
							<clipPath id="SVGID_00000144336529522558502450000002230472367397420712_">
								<use xlink:href="#SVGID_00000111891375802503719130000012485151142849450655_"  style="overflow:visible;"/>
							</clipPath>
							
								<path style="clip-path:url(#SVGID_00000144336529522558502450000002230472367397420712_);stroke:#000000;stroke-miterlimit:10;" d="
								M475.6,769.3v4.8c0,0.4-0.3,0.7-0.7,0.7h-35.1c-0.4,0-0.7-0.3-0.7-0.7v-4.8c0-0.4,0.3-0.7,0.7-0.7h35.1
								C475.3,768.6,475.6,768.9,475.6,769.3z"/>
						</g>
						<g>
							<defs>
								<circle id="SVGID_00000004507789272857120720000015025744602889085316_" cx="491.3" cy="463.2" r="297.3"/>
							</defs>
							<clipPath id="SVGID_00000164484938045205144350000002082635724396139167_">
								<use xlink:href="#SVGID_00000004507789272857120720000015025744602889085316_"  style="overflow:visible;"/>
							</clipPath>
							
								<path style="clip-path:url(#SVGID_00000164484938045205144350000002082635724396139167_);stroke:#000000;stroke-miterlimit:10;" d="
								M426.9,816.2v3.9c0,0.3-0.3,0.6-0.6,0.6H322.2c-0.3,0-0.6-0.3-0.6-0.6v-3.9c0-0.3,0.3-0.6,0.6-0.6h104.1
								C426.6,815.6,426.9,815.9,426.9,816.2z"/>
						</g>
						<g>
							<defs>
								<circle id="SVGID_00000116948522851674716320000008559216236362108819_" cx="491.3" cy="463.2" r="297.3"/>
							</defs>
							<clipPath id="SVGID_00000041990365890715982100000014696005007816132528_">
								<use xlink:href="#SVGID_00000116948522851674716320000008559216236362108819_"  style="overflow:visible;"/>
							</clipPath>
							
								<rect x="336.4" y="431.6" style="clip-path:url(#SVGID_00000041990365890715982100000014696005007816132528_);fill:#009B1A;" width="10.1" height="10.1"/>
						</g>
						<g>
							<defs>
								<circle id="SVGID_00000124840483965519548000000008542018472257519028_" cx="491.3" cy="463.2" r="297.3"/>
							</defs>
							<clipPath id="SVGID_00000102533793330065351100000016878315845775367837_">
								<use xlink:href="#SVGID_00000124840483965519548000000008542018472257519028_"  style="overflow:visible;"/>
							</clipPath>
							
								<rect x="363.7" y="404.2" style="clip-path:url(#SVGID_00000102533793330065351100000016878315845775367837_);fill:#009B1A;" width="10.1" height="10.1"/>
						</g>
						<g>
							<defs>
								<circle id="SVGID_00000129165468544572885600000010984941370828151959_" cx="491.3" cy="463.2" r="297.3"/>
							</defs>
							<clipPath id="SVGID_00000067215571284824620090000008500036673075464102_">
								<use xlink:href="#SVGID_00000129165468544572885600000010984941370828151959_"  style="overflow:visible;"/>
							</clipPath>
							
								<rect x="385.9" y="453.7" style="clip-path:url(#SVGID_00000067215571284824620090000008500036673075464102_);fill:#009B1A;" width="10.1" height="10.1"/>
						</g>
						<g>
							<defs>
								<circle id="SVGID_00000155140742934517168580000007432285719023320746_" cx="491.3" cy="463.2" r="297.3"/>
							</defs>
							<clipPath id="SVGID_00000064341435832370523640000011500384129365198465_">
								<use xlink:href="#SVGID_00000155140742934517168580000007432285719023320746_"  style="overflow:visible;"/>
							</clipPath>
							
								<rect x="538.8" y="422.7" style="clip-path:url(#SVGID_00000064341435832370523640000011500384129365198465_);fill:#009B1A;" width="10.1" height="10.1"/>
						</g>
						<g>
							<defs>
								<circle id="SVGID_00000145030389311905344620000001930960001291409571_" cx="491.3" cy="463.2" r="297.3"/>
							</defs>
							<clipPath id="SVGID_00000096026461061473883080000015701052959561494682_">
								<use xlink:href="#SVGID_00000145030389311905344620000001930960001291409571_"  style="overflow:visible;"/>
							</clipPath>
							
								<rect x="428.8" y="358.7" style="clip-path:url(#SVGID_00000096026461061473883080000015701052959561494682_);fill:#009B1A;" width="10.1" height="10.1"/>
						</g>
						<g>
							<circle id="SVGID_00000173135150595452759760000004206864045927787163_" class="st25" cx="491.3" cy="463.2" r="297.3"/>
						</g>
					</g>
				</g>
				<g>
					<circle class="st26" cx="604.7" cy="656.8" r="47.4"/>
					<text transform="matrix(1 0 0 1 578.6646 647.8737)" class="st27 st28 st29">DBQ</text>
					<text transform="matrix(1 0 0 1 574.2646 681.6737)" class="st27 st28 st29">Mart</text>
				</g>
			</g>
			<g>
				<path d="M418.3,665.8v2.9c0,0.4-0.3,0.7-0.7,0.7h-88.9c-0.4,0-0.7-0.3-0.7-0.7v-2.9c0-0.4,0.3-0.7,0.7-0.7h88.9
					C418,665.1,418.3,665.4,418.3,665.8z"/>
				<path d="M436.3,654.8v2.9c0,0.4-0.3,0.7-0.7,0.7H328.7c-0.4,0-0.7-0.3-0.7-0.7v-2.9c0-0.4,0.3-0.7,0.7-0.7h106.8
					C435.9,654.1,436.3,654.4,436.3,654.8z"/>
				<path d="M390.3,643.7v2.9c0,0.4-0.3,0.7-0.7,0.7h-60.9c-0.4,0-0.7-0.3-0.7-0.7v-2.9c0-0.4,0.3-0.7,0.7-0.7h60.9
					C390,643,390.3,643.3,390.3,643.7z"/>
				<path d="M436.3,643.7v2.9c0,0.4-0.3,0.7-0.7,0.7h-24.3c-0.4,0-0.7-0.3-0.7-0.7v-2.9c0-0.4,0.3-0.7,0.7-0.7h24.3
					C436,643,436.3,643.3,436.3,643.7z"/>
				<path d="M402.1,676.7v2.4c0,0.3-0.3,0.6-0.6,0.6h-72.9c-0.3,0-0.6-0.3-0.6-0.6v-2.4c0-0.3,0.3-0.6,0.6-0.6h72.9
					C401.8,676.1,402.1,676.4,402.1,676.7z"/>
			</g>
		</g>
		<circle class="st25" cx="491.3" cy="463.2" r="440.2"/>
		<g>
			<g>
				<path class="st30" d="M197.5,304.4c-1.7,2.4-3.7,4.2-5.9,5.5c-2.2,1.2-4.2,1.4-6.1,0.5c-13.9-7.1-27.7-14.1-41.6-21.2
					c-0.9,2.2-2.1,4.2-3.5,6c-1.5,1.8-2.9,3.1-4.3,4c-1.4,0.8-2.7,1.1-3.9,0.8c-1.2-0.3-1.9-1.5-2.3-3.4c-0.4-2.1-0.4-4.5-0.1-7.1
					c0.3-2.6,0.9-5.3,1.6-8c0.8-2.7,1.7-5.4,2.7-8.2c1.1-2.8,2.1-5.4,3.2-7.9c3.1-7,6.9-13.6,11.2-19.8s9-11.5,14-16
					s10.2-8,15.5-10.5s10.6-3.7,15.7-3.6c3.1,0.1,6,0.6,8.5,1.7c2.5,1.1,4.9,2.4,6.9,4.1c2.7,2.2,4.8,4.9,6.4,8.1
					c1.6,3.2,2.6,6.7,3.1,10.6c0.5,3.9,0.4,8-0.1,12.4c-0.6,4.4-1.6,8.9-3.1,13.5c-1.3,4-3.1,8.2-5.1,12.3c-2,4.2-4,8.3-5.9,12.3
					c-1,2-2,4.2-3,6.5s-2.1,4.5-3.3,6.6C197.9,303.8,197.8,304,197.5,304.4z M156.6,257.6c-0.9,1.4-1.7,2.8-2.4,4.2
					c-0.7,1.3-1.4,2.8-2.2,4.3c12.8,7.5,25.5,15,38.3,22.6c0.4-0.6,0.6-1.1,0.8-1.6c0.2-0.4,0.4-0.9,0.6-1.3
					c0.2-0.4,0.4-0.8,0.5-1.1c0.7-1.5,1.3-2.7,1.8-3.6s0.9-1.8,1.3-2.7c0.4-0.8,0.8-1.7,1.2-2.6s0.9-2,1.4-3.1
					c2.7-6.2,4.3-11.5,4.6-16.1s-0.7-8.9-2.7-13.1c-1.2-2.4-2.8-4.5-4.8-5.9c-2.1-1.4-4.4-2.3-7.1-2.6c-2.7-0.3-5.6,0.1-8.7,1.3
					c-3.1,1.1-6.3,3-9.5,5.8c-2.6,2.2-4.9,4.7-7,7.3C160.6,251.9,158.5,254.7,156.6,257.6z"/>
				<path class="st30" d="M290.6,185.1c1.9,1.3,2.8,2.8,2.7,4.6c-0.1,1.8-0.8,3.5-2.1,5.1c-1.3,1.6-3.1,2.8-5.3,3.8
					c-2.2,1-4.6,1.3-7.1,1c-1.3,3-2.8,5.7-4.5,7.9s-3.8,4.6-6.4,7c-3.8,3.6-7.6,6.6-11.3,8.8c-3.7,2.2-7.3,3.7-10.7,4.4
					c-3.5,0.7-6.8,0.6-9.9-0.4c-3.2-1-6.1-3-8.6-6c-1-1.2-1.9-2.7-2.6-4.2c-0.7-1.5-1.3-3.1-1.9-4.7c-0.6-1.8-0.9-3.9-1.1-6.5
					c-0.2-2.5-0.1-4.9,0.2-7.1c1-8,4.4-16.2,10.2-24.3c1-1.4,2.5-3.2,4.5-5.3s4.1-4.1,6.4-5.9c2.3-1.8,4.6-3.4,7-4.7
					s4.4-1.9,6.1-1.8c1.4,0.1,2.5,0.2,3.2,0.5c0.8,0.3,1.4,0.7,1.9,1.2c0.5,0.6,1,1.2,1.4,1.9c0.5,0.7,1.1,1.6,1.8,2.6
					c1.2,1.7,2.4,3.3,3.6,4.9c1.1,1.6,2.4,3.2,3.6,4.7c0.4,0.5,0.9,1.2,1.6,2.1c0.6,0.9,1.4,1.7,2.2,2.6c0.8,0.9,1.6,1.7,2.4,2.5
					s1.5,1.3,2.1,1.7C284.3,182.9,286.4,183.6,290.6,185.1z M261.1,202.1c0.6-1,1.2-2.5,1.9-4c0.7-1.5,1.3-2.9,1.7-4.3
					c-3.3-2.4-6.2-5-8.9-7.9c-2.7-2.9-5.2-5.9-7.6-9.2c-3.6,3.8-6.2,8-7.7,12.5s-1.7,8.4-0.7,11.8c0.4,1.4,0.9,2.7,1.5,4
					s1.4,2.3,2.3,3.2c1.3,1.1,2.7,1.7,4.4,1.7s3.3-0.4,4.9-1.1c1.6-0.7,3.2-1.7,4.6-2.9C259,204.8,260.3,203.5,261.1,202.1z"/>
				<path class="st30" d="M265.9,127.5c-1.1-2.6-0.9-5.1,0.6-7.6s3.6-4.6,6.2-6.1s5.3-2.4,8.2-2.5c2.9-0.1,4.9,0.9,6.3,2.9
					s1.5,4.3,0.2,6.6c-1.3,2.4-3.2,4.4-5.7,6.1c-2.5,1.7-5.1,2.8-8,3.2c-2.9,0.4-5.3-0.2-7.2-2C266.3,127.8,266.2,127.7,265.9,127.5
					z M318.4,169.3c0.6,1.4,0.6,2.9,0.1,4.5s-1.2,3-2.3,4.3c-1.1,1.3-2.5,2.2-4.2,2.9s-3.5,0.9-5.4,0.6c-1.1-0.2-2-0.6-2.9-1.1
					c-0.8-0.6-1.5-1.3-2.2-2c-0.6-0.8-1.2-1.6-1.7-2.5s-1-1.6-1.4-2.3c-2.4-3.6-4.9-7.2-7.2-10.8c-2.3-3.6-4.8-7.2-7.2-10.8
					c-1-1.5-2.1-2.9-3.4-4.2s-2.2-2.9-2.5-4.8c-0.3-1.4,0-3,0.7-4.6s1.7-3.1,3.1-4.3c1.4-1.3,2.9-2.3,4.8-3.1
					c1.8-0.8,3.7-0.9,5.5-0.6c2.3,0.4,3.9,1.1,4.6,2.4c0.7,1.2,1.6,2.8,2.7,4.6c1.3,2.2,2.5,4.3,3.8,6.5s2.6,4.3,3.9,6.3
					c1.9,3,3.7,6.1,5.5,9.1c1.8,3.1,3.6,6.1,5.4,9.2C318.1,168.9,318.2,169.1,318.4,169.3z"/>
				<path class="st30" d="M352.4,148c1.3,0.2,2.6,0.7,3.7,1.5c1.2,0.8,2,1.7,2.5,2.7s0.6,2.2,0.3,3.4c-0.3,1.2-1.2,2.5-2.8,3.6
					c-1.2,0.9-2.7,1.7-4.4,2.2c-1.7,0.5-3.5,0.9-5.4,1s-3.6,0.1-5.3-0.1c-1.6-0.2-3-0.7-4-1.4c-0.4-0.2-0.7-0.6-1-0.9
					c-0.3-0.4-0.5-0.7-0.7-1.1c-9.3-18.3-18.6-36.6-27.9-54.9c-0.8-1.5-0.5-3.3,0.9-5.3s3.2-3.7,5.5-5c1.1-0.6,2.3-1,3.7-1.4
					c1.4-0.3,2.8-0.5,4.1-0.5c1.3,0,2.5,0.2,3.6,0.6c1,0.4,1.7,0.9,2,1.7c0.8,1.8,1.8,4.1,3.1,7c1.3,2.9,2.7,6.1,4.3,9.5
					c1.6,3.4,3.2,7,4.8,10.7c1.6,3.7,3.2,7.2,4.6,10.6s2.8,6.5,4,9.3s2.2,5.1,2.8,6.8C351.5,148.1,351.8,148.1,352.4,148z"/>
				<path class="st30" d="M407.9,86.5c1-1.7,2.5-3.1,4.4-4c1.9-1,3.9-1.5,6-1.5c2-0.1,3.9,0.3,5.6,1c1.7,0.8,2.9,2,3.5,3.6
					c0.4,1.2,0.4,3-0.2,5.4s-1.3,4.9-2.2,7.6c-0.9,2.6-1.9,5.2-2.8,7.6c-1,2.4-1.7,4.4-2.3,5.7c-2.5,6.1-5.1,12.2-7.8,18.3
					c-2.8,6.1-5.4,12.2-8,18.3c-0.3,0.9-0.7,2.1-1.2,3.4c-0.4,1.3-0.9,2.7-1.3,4.2c-0.4,1.4-0.9,2.8-1.4,4.1s-1,2.3-1.6,3
					c-1.2,1.7-2.7,2.9-4.3,3.6c-1.6,0.7-3.2,1.1-4.8,1c-1.6-0.1-3-0.6-4.2-1.5c-1.3-0.9-2.2-2.2-2.5-3.9c-0.1-0.6-0.1-1.6,0.2-2.8
					c0.3-1.2,0.6-2.5,1.1-3.9s0.9-2.7,1.4-3.9c0.5-1.3,0.9-2.3,1.2-3.1c1.1-2.9,2.2-5.8,3.3-8.7c1.1-2.9,2.2-5.8,3.4-8.6
					c-7.7-2-14.8-4.5-21.4-7.5s-12.3-6.7-17.2-11.3c-0.9-0.8-1.8-1.5-2.7-2.3c-0.9-0.8-1.5-1.7-1.7-2.8c-0.2-1.2-0.1-2.5,0.3-3.7
					s1.2-2.4,2.3-3.5c1.1-1.1,2.5-2,4.1-2.6c1.7-0.7,3.5-1.1,5.4-1.1c1.6,0,3,0.3,4.1,0.9s2.1,1.3,3,2.2c0.9,0.8,1.7,1.7,2.4,2.7
					c0.7,0.9,1.5,1.7,2.3,2.4c6.5,5.6,14.7,9.6,24.4,12.5c1.9-5.1,3.5-10.1,5-15c1.4-4.9,2.7-9.9,3.7-14.9
					C407.6,87,407.7,86.8,407.9,86.5z"/>
				<path class="st31" d="M513.6,129.9c-4.2-0.6-6.8-1.8-7.7-3.6c-0.9-1.8-0.8-3.7,0.2-5.7c0.6-15,1.3-30,1.9-44.9
					c-1.8-0.1-3.5-0.4-4.9-1.1s-2.6-1.5-3.4-2.5s-1.3-2-1.3-3.2c0-1.1,0.6-2.2,1.7-3.1c2.4-2.2,5.5-3.8,9.4-4.9
					c3.8-1.1,7.8-1.9,12-2.4c6.5-0.8,13-0.9,19.4-0.3c6.5,0.6,12.7,2.3,18.6,5.1c5.3,2.5,9.3,5.4,11.9,8.6c2.6,3.2,4,6.3,4.2,9.3
					s-0.9,5.9-3.1,8.5c-2.2,2.7-5.6,4.9-10,6.8c4.7,3.1,7.8,6.5,9.2,10c1.5,3.5,1.6,6.7,0.5,9.8c-1.1,3.1-3.2,5.8-6.4,8.3
					c-3.1,2.4-7,4.3-11.6,5.7c-2.7,0.9-5.8,1.4-9.2,1.5c-3.4,0.2-6.9,0.2-10.4,0c-3.5-0.1-7-0.4-10.5-0.7s-6.6-0.7-9.5-1
					C514.2,130,514,130,513.6,129.9z M528.2,85.7c2,0.2,4,0.4,6.1,0.6c2,0.2,4,0.3,6,0.3s4-0.2,5.9-0.5s3.7-0.9,5.4-1.8
					c2.4-1.2,3.4-2.7,3.1-4.5c-0.3-1.8-1.8-3.4-4.3-4.9c-2.8-1.6-6.2-2.8-10-3.3s-7.4-0.6-10.7-0.3C529,77.1,528.8,80,528.2,85.7z
					 M549.7,105.6c-1.7-1.2-3.5-2.1-5.3-2.8c-1.8-0.7-3.6-1.2-5.4-1.6c-1.9-0.4-3.8-0.7-5.7-0.8c-2-0.1-4.1-0.3-6.3-0.4
					c-0.7,7.1-1,10.6-1.7,17.6c2.3,0.2,4.7,0.4,7.3,0.6s5.1,0.2,7.5,0s4.7-0.5,6.9-1.1s4.1-1.5,5.6-2.8c0.6-1.7,0.8-3.2,0.6-4.6
					C552.8,108.5,551.7,107,549.7,105.6z"/>
				<path class="st31" d="M593.5,106.2c0.2-0.4,0.4-1.3,0.6-2.6c-1.5-1.1-2.7-2.3-3.4-3.6c-0.7-1.3-1-2.5-0.9-3.7s0.8-2.2,1.9-3
					c1.1-0.8,2.7-1.3,4.8-1.5c2.8-0.2,5.7,0.4,8.5,1.9c2.9,1.5,5.2,3.1,7,5c3.2-0.5,6.4-0.6,9.7-0.5s6.5,0.6,9.7,1.4
					s6.3,2.1,9.2,3.8c3,1.7,5.7,3.8,8.1,6.4c1.2,1.3,2.3,2.6,3.1,4.1s1.1,2.9,0.9,4.1c-0.3,1.9-1.2,3.3-2.6,4.1
					c-1.5,0.8-3.2,1.2-5.1,1c-1.9-0.1-3.8-0.8-5.8-1.9s-3.6-2.6-5-4.6c-0.5-0.5-0.9-0.9-1.1-1.2c-0.2-0.3-0.7-0.8-1.4-1.3
					c-1.4-1-3.3-1.5-5-1.7c-1.8-0.2-3.6-0.2-5.4,0c-1.8,0.2-3.5,0.5-5.1,0.9s-3.1,0.8-4.4,1.2c-3.1,8.9-6.1,17.8-9.2,26.8
					c-0.4,1-1,2-1.9,2.8c-1.4,1.3-3.1,2-5.2,2c-2.1,0-4-0.4-5.7-1.2c-1.8-0.8-3.2-2-4.2-3.6c-1.1-1.5-1.4-3.2-0.9-5
					c2.8-10,5.6-19.9,8.5-29.9C593.2,106.7,593.2,106.6,593.5,106.2z"/>
				<path class="st31" d="M692.7,173.4c2.4,1.1,4.3,2.4,5.6,3.9c1.4,1.5,2.2,3,2.5,4.4s0,2.7-1,3.7c-0.9,1.1-2.5,1.7-4.8,2
					c-1.8,0.2-4,0-6.4-0.7c-2.5-0.6-4.7-1.3-6.7-2c-4.9-1.7-9.4-3.5-13.5-5.4s-7.7-4-10.8-6.3c-3.1-2.4-5.8-5-8.1-8
					s-4.1-6.5-5.5-10.5c-1-2.7-1.4-5.4-1.2-8.1c0.2-2.7,0.8-5.3,1.8-7.8s2.4-4.7,4.2-6.7s3.8-3.7,6-4.9c2.8-1.5,6.6-2.3,11.4-2.3
					c4.8,0,9.8,0.7,15,2.2c5.2,1.4,10.2,3.5,15,6.3c4.8,2.7,8.6,5.8,11.5,9.2c2.4,2.8,4,5.8,4.9,8.8s1.1,5.8,0.5,8.2
					s-1.9,4.3-3.9,5.8s-4.7,2.1-8.1,2c-3.3-0.1-6.7-0.5-10-1.4c-3.4-0.8-6.7-1.8-10.1-2.9c-3.4-1.1-6.8-2.3-10.1-3.6
					c-3.4-1.3-6.7-2.4-9.9-3.3c1.1,2.6,2.8,4.8,5,6.6s4.7,3.4,7.5,4.8c2.8,1.4,5.8,2.5,9,3.4s6.2,1.8,9.2,2.4
					C692.1,173.2,692.3,173.2,692.7,173.4z M674.6,139.7c-2.7-0.4-5-0.3-6.7,0.4c-1.8,0.7-3.5,2.1-5.2,4.1c2.8,0.8,5.9,1.8,9.3,2.9
					c3.4,1.2,6.7,2.3,9.9,3.3c3.1,1,5.9,1.8,8.2,2.2c2.4,0.4,3.8,0.2,4.4-0.6c0.3-0.5,0.5-1.1,0.6-1.7c0.1-0.6-0.2-1.3-0.9-1.9
					c-2.3-2.3-5-4.2-8.2-5.6s-5.9-2.2-8.3-2.6C676.5,140,675.8,139.9,674.6,139.7z"/>
				<path class="st31" d="M754.2,242.7c-1.1,2.1-2.5,3.1-4.4,3.1c-1.8,0-3.6-0.6-5.3-1.9c-1.7-1.3-3.2-3-4.4-5.2s-1.8-4.6-1.7-7.1
					c-3.2-1.1-5.9-2.4-8.3-4c-2.4-1.5-4.9-3.5-7.5-5.9c-3.9-3.6-7.1-7-9.6-10.5s-4.2-6.9-5.1-10.3c-1-3.4-1.1-6.7-0.3-9.9
					s2.5-6.3,5.3-9.1c1.1-1.1,2.5-2.2,3.9-3s2.9-1.6,4.5-2.3c1.7-0.7,3.8-1.3,6.3-1.7s4.8-0.5,7-0.4c7.9,0.3,16.3,2.9,24.9,8.1
					c1.5,0.9,3.4,2.3,5.6,4.1c2.3,1.8,4.4,3.9,6.5,6c2,2.2,3.8,4.4,5.4,6.8c1.5,2.3,2.3,4.4,2.4,6.1c0.1,1.4,0,2.5-0.2,3.3
					s-0.5,1.5-1,2s-1.1,1.1-1.8,1.6s-1.5,1.2-2.4,2c-1.5,1.4-3.1,2.7-4.6,4s-3,2.7-4.4,4c-0.5,0.4-1.1,1-1.9,1.7
					c-0.8,0.7-1.6,1.5-2.4,2.4c-0.8,0.9-1.6,1.7-2.3,2.6c-0.7,0.8-1.2,1.6-1.5,2.3C755.9,236.1,755.3,238.3,754.2,242.7z
					 M734.3,213.9c1.1,0.5,2.6,1,4.1,1.6s3,1.1,4.4,1.4c2.1-3.5,4.5-6.7,7.1-9.6c2.7-2.9,5.5-5.7,8.5-8.3c-4.1-3.3-8.6-5.6-13.2-6.7
					c-4.6-1.2-8.5-1-11.8,0.2c-1.3,0.5-2.6,1.1-3.8,1.8s-2.2,1.6-2.9,2.6c-1,1.4-1.5,2.9-1.4,4.5c0.1,1.7,0.6,3.3,1.5,4.8
					c0.8,1.6,1.9,3,3.2,4.4C731.5,212,732.9,213.2,734.3,213.9z"/>
				<path class="st31" d="M806.5,317.7c-1.1,2.8-2.5,4.2-4.4,4.3c-1.8,0.1-3.5-0.5-5.1-2c-1.6-1.4-3-3.4-4.1-6s-1.5-5.5-1.2-8.6
					c-2.4-1.8-4.6-3.9-6.7-6.1c-2-2.2-4.1-4.6-6.2-7.1c-3.2-3.9-5.7-8-7.5-12.3s-2.9-8.4-3.4-12.4s-0.3-7.8,0.7-11.3
					c0.9-3.5,2.7-6.4,5.1-8.6c2.7-2.5,5.8-4.4,9.2-5.5s7.1-1.4,11-0.8c3.9,0.6,8,2.2,12.3,4.9s8.6,6.6,12.7,11.7
					c2.4,3,4.6,6.2,6.6,9.6s3.8,6.9,5.3,10.5c1.4-0.9,2.9-1.9,4.8-3c1.8-1.1,3.6-2.1,5.3-3.1s3.4-1.7,4.9-2.2s2.7-0.8,3.5-0.7
					c1.6,0.2,3.2,1,4.8,2.5c1.6,1.4,2.9,3.2,3.9,5.1c1.1,2,1.8,4.1,2.2,6.3c0.4,2.2,0.3,4.2-0.3,5.9c-0.2,0.4-0.4,0.9-0.5,1.4
					s-0.4,0.9-0.7,1c-8.5,4.1-17.2,8.4-25.9,12.4s-22.3,8-26,12.2C806.7,316.4,806.6,317.3,806.5,317.7z M800.6,292.7
					c0.3,0.1,0.7,0.4,1.2,0.9s0.9,0.6,1.2,0.4c2.7-1.5,5.4-3,8-4.4s5.3-3,7.9-4.6c-1.1-2.8-2.5-5.7-4-8.5c-1.6-2.9-3.3-5.5-5.3-7.8
					c-2-2.4-4.1-4.3-6.3-5.9c-2.2-1.5-4.5-2.4-6.9-2.5c-1.6,0.2-3.1,0.4-4.6,0.7c-1.5,0.3-2.8,0.8-3.9,1.5c-1.1,0.7-2.1,1.7-2.8,2.9
					c-0.7,1.2-1.2,2.7-1.4,4.5c0,0.5,0.1,1.2,0.2,1.9c0.1,0.7,0.1,2.4,0.7,4c1.2,3.3,4.4,7,7.1,10
					C794.3,288.8,797.3,291.1,800.6,292.7z"/>
			</g>
		</g>
		<g>
			<g>
				<path class="st32" d="M156.4,667.1c0.7,2.2,0.6,4.4,0.2,6c-0.5,1.6-1.2,2.8-2.4,3.3c-1.2,0.6-2.6,0.5-4.3-0.3s-3.5-2.5-5.3-5.2
					c-1.3-1.9-2.6-4.4-3.7-7.4c-1.1-3-2-6.1-2.8-9.3s-1.4-6.2-1.8-9.2c-0.4-2.9-0.7-5.3-0.9-7.2c-2.3-2.3-4.5-4.8-6.7-7.5
					s-4.2-6.1-6.1-9.5c-1.3-2.2-2.6-4.7-3.5-7.3s-1.6-4.9-2.2-7.1c-2.2-7-3.4-13.7-3.7-19.9c-0.3-6.2,0.6-11.8,2.6-16.6
					c2.2-5.2,5.3-9.3,9.3-12.1s8.4-4.4,13.1-5c4.7-0.5,9.7,0,14.8,1.6s10,4.2,14.7,7.8c4.9,3.8,9.4,8.5,13.4,14.2s7.4,11.6,10,17.9
					c2.6,6.3,4.4,12.5,5.3,18.9c0.9,6.4,0.5,12.1-1.4,17.3c-1.5,4.2-3.7,7.9-6.6,11c-2.9,3.1-6.3,5.5-10.2,7.1s-8.2,2.5-12.8,2.5
					s-9.3-1-14.1-3c0.5,3.1,1.2,6.1,2.1,9.2C154.3,660.8,155.5,664.1,156.4,667.1z M152.3,612.8c0.4,2.5,0.3,5.4-0.2,8.4
					c-0.6,3-1,5.9-1.4,8.6c3.4,1.3,6.5,1.9,9.5,1.9c2.9,0,5.9-0.3,9-0.9c1.2-0.7,2.4-1.4,3.7-2.2s2.5-1.6,3.6-2.6s2.1-2.1,3-3.3
					s1.6-2.7,1.9-4.4c0.8-2.8,0.9-5.9,0.4-9.4s-1.4-6.9-2.7-10.4s-3-6.7-5-9.8c-2.1-3-4.4-5.6-7.1-7.6c-4.6-3.5-9.3-5.8-14.1-6.7
					s-9.2-0.6-13,0.9c-2.2,0.9-4.3,2.2-6.2,4.1c-1.9,1.8-3.3,4.2-4.3,7s-1.4,6.1-1.3,9.9c0.1,3.8,1.2,8,2.9,12.5
					c1.1,2.9,2.6,5.9,4.4,8.8c0.3-2.9,0.8-5.9,1.5-9s1.9-5.2,3.2-6.2c0.9-0.7,2-1.1,3.3-0.7c1.3,0.3,2.5,1,3.7,2.1
					c1.2,1,2.3,2.3,3.3,4C151.3,609.1,152,610.9,152.3,612.8z"/>
				<path class="st32" d="M221,733.8c0.1,1.4-0.2,2.5-0.9,3.6c-0.7,1-1.6,1.7-2.8,2.1c-1.2,0.4-2.6,0.3-4.1-0.1
					c-1.5-0.5-3.1-1.5-4.7-3.2c-2.1-2.2-3.4-4.4-3.9-6.5s-0.8-4.2-1-6.3c-4.7-1.6-9-4-12.9-7s-7.2-6.5-9.8-10.4
					c-2.7-3.9-4.5-8.1-5.6-12.5s-1.2-8.7-0.4-12.8c0.8-3.8,2.6-6.9,5.3-9.2s5.4-4.4,8-6.2c0.9-0.6,1.8-1.3,2.7-1.8
					c0.9-0.6,1.9-1.2,2.9-1.8c0.8-0.5,1.5-0.9,2.2-1.5c0.7-0.5,1.4-0.9,2.1-1.3c0.7-0.3,1.5-0.5,2.4-0.6s1.9,0.1,3,0.4
					c1.5,0.5,2.8,1.4,4,2.7s2.2,2.7,2.8,4.3c0.7,1.5,1,3.1,1.1,4.5c0.1,1.5-0.3,2.7-1.2,3.6c-2.5,2.4-5.5,4.6-8.6,6.6
					c-3.1,1.9-5.8,4.3-8.2,6.9c-1.1,1.2-2,2.9-2.6,4.9s-0.3,4.4,0.8,6.8c1.1,2.4,2.9,4.4,5.3,5.9c2.4,1.5,4.5,2.4,6.5,2.9
					c0.9,0.2,1.9,0.3,2.9,0.4c1,0.1,1.9,0.3,2.9,0.6c1.5-2,3.1-3.9,4.8-5.6c1.7-1.8,3.6-3.4,5.3-5c1-0.9,2.1-1.8,3.3-2.8
					s2.6-1.7,4.1-2.2s3.1-0.6,4.8-0.4c1.7,0.2,3.5,1.1,5.4,2.6c0.9,0.7,1.6,1.5,2.2,2.5c0.6,1,1,1.9,1.2,2.8c0.4,1.6,0.5,3,0.1,4.1
					s-0.9,2.1-1.7,3s-1.7,1.6-2.8,2.4c-1,0.7-1.9,1.4-2.7,2.1c-1.5,1.3-3,2.6-4.6,4.1s-3,3.1-4.2,4.9c-1.3,1.8-2.2,3.8-3,5.9
					C221,728.9,220.7,731.3,221,733.8z"/>
				<path class="st32" d="M265.4,700.7c2-1.7,4.2-2.3,6.5-1.9c2.3,0.4,4.4,1.3,6.1,2.8s3,3.3,3.7,5.4c0.7,2.2,0.4,4.2-0.9,6.1
					c-1.3,1.9-3.1,2.9-5.4,2.8c-2.3-0.2-4.5-0.9-6.5-2.4c-2-1.4-3.5-3.3-4.4-5.5s-0.8-4.5,0.5-6.6
					C265.2,701.1,265.3,701,265.4,700.7z M243.6,759.8c-1,1-2.4,1.5-4.2,1.5c-1.7,0-3.5-0.4-5.2-1.1c-1.7-0.7-3.2-1.9-4.7-3.4
					c-1.4-1.5-2.3-3.3-2.7-5.3c-0.2-1.1-0.2-2.1,0-3.1c0.3-0.9,0.7-1.8,1.2-2.6s1.1-1.5,1.8-2.2s1.3-1.3,1.7-1.9
					c2.6-3.1,5.3-6.3,7.9-9.3c2.7-3,5.3-6.2,8-9.3c1.1-1.3,2.1-2.6,3-4.1s2.1-2.7,3.7-3.5c1.2-0.6,2.6-0.9,4.1-0.7
					c1.5,0.1,3,0.5,4.4,1.3c1.4,0.7,2.7,1.7,3.8,3c1.1,1.3,1.7,2.8,2,4.4c0.3,2,0.2,3.7-0.6,4.7c-0.8,1.1-1.9,2.4-3.1,3.9
					c-1.5,1.9-2.9,3.7-4.4,5.6c-1.5,1.9-2.9,3.8-4.2,5.6c-1.9,2.7-4,5.4-6,8c-2.1,2.6-4.1,5.3-6.2,7.9
					C243.8,759.5,243.8,759.6,243.6,759.8z"/>
				<path class="st32" d="M316,804.3c-1.1,1.4-2.6,2.3-4.7,2.5c-2.1,0.3-4.1,0-6.2-0.7s-3.9-1.8-5.4-3.3s-2.2-3.3-2.1-5.3
					c0.1-2.2,0.7-4.2,1.9-5.9c1.2-1.8,2.3-3.4,3.1-5c1.8-3.3,3.6-6.6,5.5-9.8c1.8-3.2,3.4-6.7,4.8-10.2c0-0.2-0.1-0.3-0.1-0.5
					c0-0.1-0.1-0.4-0.3-0.7c-1.9-1.5-4.1-2.6-6.7-3.4c-2.6-0.8-5-1.2-7.1-1.3c-1.9-0.1-3.9,0.2-6.1,0.7s-3.7,1.3-4.5,2.6
					c-3.1,4.9-4.6,7.3-7.7,12.2c-0.6,0.9-1.2,2-1.8,3.2c-0.6,1.2-1.4,2.2-2.3,3.1c-0.9,0.9-2.1,1.6-3.5,1.9
					c-1.4,0.3-3.2,0.1-5.4-0.7c-1.2-0.4-2.2-1-3.1-1.6s-1.7-1.5-2.6-2.4c-1.4-1.5-2.3-2.9-2.4-4.2c-0.2-1.3-0.1-2.6,0.3-3.7
					c0.4-1.1,0.9-2.1,1.6-3s1.2-1.5,1.5-2.1c0.9-1.3,2.2-3.2,3.9-5.7c1.7-2.5,3.5-5.1,5.4-7.9c1.9-2.7,3.8-5.4,5.5-7.8
					c1.7-2.5,3.1-4.4,4-5.7s2.2-1.9,3.8-2c1.6-0.1,3.3,0.2,4.9,0.9s3.1,1.8,4.5,3.2s2.2,3.1,2.6,4.9c4.4,0.6,8.7,1.8,13.1,3.6
					s8.3,4,11.6,6.7c3.3,2.7,5.7,5.6,7.2,8.9c1.5,3.3,1.5,6.8-0.2,10.5c-0.1,0.1-0.2,0.5-0.4,1.2c-0.2,0.7-0.6,1.6-1.1,2.7
					C323,789.9,320.7,794.7,316,804.3z"/>
				<path class="st32" d="M347.3,783c-1.7-1.1-3.1-2.3-4.1-3.6s-1.5-2.6-1.6-3.9c0-1.2,0.4-2.3,1.4-3.1c1-0.9,2.5-1.4,4.6-1.5
					c1.8-0.1,3.6,0.1,5.4,0.9c1.8,0.7,3.6,1.4,5.3,2.1c0.2-0.5,0.5-1.5,1-3c0.5-1.6,1.2-3.2,1.9-5c0.8-1.8,1.6-3.5,2.5-5
					s1.9-2.5,2.8-2.9c2.5-1.2,4.9-1.2,7.4-0.2s4.3,2.7,5.4,5c0.2,0.4,0.4,1,0.6,1.5c0.2,0.6,0.2,1,0,1.4c-0.8,2.3-1.5,4.8-2.4,7.1
					c-0.9,2.4-1.7,4.7-2.5,7.1c4.4,1.5,6.6,2.1,11.1,3.5c1.7,0.5,3,1.3,4,2.5c1,1.1,1.6,2.3,1.8,3.5c0.2,1.2,0.1,2.4-0.5,3.4
					c-0.6,1.1-1.6,1.8-3.1,2.2c-2.6,0.6-5.4,0.6-8.4-0.3c-3-0.8-6-1.8-9.1-2.8c-1.2,3.6-2.5,7.2-3.8,10.8s-2.5,7.3-3.7,10.9
					c-0.5,1.6-1,3.2-1.3,5c-0.3,1.7-1,3.3-2.2,4.6c-0.9,1-2.1,1.7-3.7,1.9c-1.5,0.3-3.1,0.2-4.7-0.2s-3.2-1-4.8-1.9
					c-1.6-0.9-2.9-2-4.1-3.4c-0.5-0.7-0.8-1.7-0.7-3c0.1-1.2,0.3-2.5,0.7-3.8c0.5-1.5,1.1-3,1.8-4.6c0.5-1.2,1.2-3,2-5
					c0.8-2.1,1.7-4.2,2.5-6.5c0.8-2.2,1.7-4.4,2.5-6.4s1.4-3.6,1.9-4.8C351.1,784.6,349.8,784.1,347.3,783z"/>
				<path class="st32" d="M443.6,829c2.6-0.1,4.8,0.1,6.8,0.7c1.9,0.6,3.4,1.4,4.4,2.4s1.4,2.1,1.1,3.4c-0.2,1.3-1.3,2.6-3.1,3.9
					c-1.5,1-3.6,1.9-6.2,2.4c-2.6,0.6-5,0.9-7.3,1.2c-5.5,0.6-10.8,0.7-15.7,0.4c-4.9-0.3-9.5-1.1-13.6-2.4
					c-4.1-1.3-7.8-3.1-11.1-5.4c-3.3-2.3-6.1-5.2-8.4-8.7c-1.6-2.3-2.6-4.8-3-7.4c-0.3-2.6-0.2-5.1,0.3-7.5c0.6-2.4,1.5-4.7,2.9-6.9
					c1.3-2.2,2.9-4,4.7-5.6c2.3-1.9,5.5-3.4,9.5-4.5c4.1-1.1,8.4-1.8,12.9-2.1c4.6-0.3,9.1-0.2,13.6,0.4c4.5,0.6,8.5,1.6,11.8,3.2
					c2.8,1.3,5.1,3,7,5.1s3.2,4.2,3.8,6.4c0.6,2.2,0.5,4.4-0.4,6.5s-2.8,3.9-5.6,5.4c-2.8,1.4-5.8,2.5-9.1,3.2
					c-3.3,0.7-6.7,1.1-10.1,1.4c-3.5,0.3-7,0.4-10.6,0.3c-3.6-0.1-7.1-0.1-10.5-0.1c1.8,2.1,4.2,3.6,6.9,4.6c2.8,1,5.8,1.6,9,1.9
					c3.2,0.2,6.5,0.2,9.8-0.2s6.4-1,9.3-1.7C443,829.1,443.2,829.1,443.6,829z M415.4,806.4c-2.5,0.4-4.4,1.2-5.8,2.3
					s-2.6,2.8-3.7,5c2.8,0,5.9,0.1,9.3,0.1s6.7,0,9.8-0.2c3.1-0.2,5.7-0.5,7.8-1.1c2.2-0.5,3.3-1.3,3.4-2.2c0.1-0.5,0-1.1-0.1-1.7
					c-0.2-0.6-0.6-1-1.4-1.3c-2.7-1.1-5.6-1.7-8.6-1.8c-3.1-0.1-5.7,0-7.8,0.4C417.1,806.1,416.5,806.2,415.4,806.4z"/>
				<path class="st32" d="M464.2,837.9c-0.6-1.2-0.8-2.4-0.6-3.5c0.2-1.1,0.7-2.1,1.6-3s2-1.5,3.6-2c1.5-0.4,3.3-0.5,5.4-0.3
					c1.2,0.1,2.2,0.4,3.2,0.7c0.9,0.4,1.8,0.8,2.6,1.3c0.8,0.5,1.6,1,2.4,1.6s1.6,1.1,2.5,1.5c1.8,0.9,3.7,1.6,5.8,2
					c2,0.4,4.3,0.8,6.5,0.9c1.4,0,2.7-0.3,3.6-0.8s1.5-1.1,1.8-1.8s0.4-1.5,0.2-2.2c-0.2-0.8-0.6-1.4-1.3-1.9
					c-1.8-1.1-4-1.9-6.6-2.2s-5-0.7-7.2-1.3c-3.2-0.7-6.2-1.7-9.2-2.8c-3-1.2-5.4-2.8-7.1-4.7c-1.8-2-2.9-4.2-3.1-6.4
					s0.2-4.3,1.1-6.4c1-2,2.5-3.9,4.5-5.5s4.4-3,7.2-4c2.1-0.8,4.3-1.3,6.7-1.5c2.4-0.2,4.9-0.3,7.3-0.2c2.5,0.1,4.9,0.4,7.4,0.8
					c2.4,0.4,4.7,0.9,6.8,1.5c2.4,0.6,4.2,1.6,5.5,2.9c1.3,1.3,1.9,2.7,2,4.1c0,1.4-0.6,2.7-1.8,3.8c-1.3,1.1-3.3,1.8-5.9,1.9
					c-1.6,0.1-3.1-0.1-4.4-0.4c-1.3-0.3-2.7-0.7-4.1-1c-1.8-0.4-3.8-0.7-5.9-0.9s-3.8-0.1-5.1,0.3c-0.4,0.1-0.9,0.3-1.4,0.7
					s-0.9,0.8-1.1,1.4c-0.3,0.6-0.3,1.1-0.2,1.7c0.1,0.6,0.7,1,1.6,1.4c2.4,0.9,5,1.6,7.8,2.1s5.5,0.9,8.2,1.5
					c2.7,0.5,5.2,1.2,7.6,2.1c2.4,0.9,4.4,2.1,6.1,3.8c2.5,2.5,3.9,5.1,4.2,8s-0.4,5.6-2.1,8.2c-1.7,2.6-4.3,4.9-7.8,6.9
					c-3.6,1.9-7.8,3.2-12.7,3.6c-3.4,0.3-6.9,0.2-10.2-0.3c-3.3-0.5-6.6-1.3-9.6-2.3c-3.1-1.1-5.9-2.4-8.5-3.9s-4.8-3.1-6.6-4.8
					C464.4,838.3,464.3,838.1,464.2,837.9z"/>
				<path class="st32" d="M530.8,836.9c-0.8-1.1-1.1-2.2-1.2-3.4c0-1.1,0.3-2.2,1.1-3.2c0.7-1,1.8-1.8,3.2-2.5s3.2-1.1,5.3-1.2
					c1.2-0.1,2.2,0,3.2,0.2s1.9,0.5,2.8,0.9c0.9,0.4,1.7,0.8,2.6,1.2c0.9,0.4,1.8,0.8,2.7,1.1c1.9,0.6,4,1,6.1,1.1s4.4,0.1,6.6-0.2
					c1.4-0.2,2.6-0.7,3.5-1.4c0.8-0.6,1.3-1.3,1.5-2.1c0.2-0.7,0.1-1.5-0.2-2.2c-0.3-0.8-0.8-1.3-1.6-1.7c-2-0.8-4.3-1.2-6.9-1.1
					c-2.6,0.1-5.1,0.1-7.3-0.1c-3.2-0.2-6.4-0.7-9.6-1.3c-3.2-0.7-5.8-1.9-7.8-3.5c-2.2-1.7-3.5-3.7-4.1-5.8s-0.6-4.3,0.1-6.4
					c0.6-2.2,1.8-4.2,3.6-6.2c1.7-1.9,3.9-3.6,6.4-5.1c1.9-1.1,4-1.9,6.4-2.5s4.8-1,7.2-1.3c2.5-0.3,4.9-0.4,7.4-0.3
					c2.5,0.1,4.8,0.1,6.9,0.4c2.4,0.2,4.4,0.9,5.9,2s2.4,2.3,2.6,3.7c0.3,1.4-0.1,2.8-1.2,4.1c-1.1,1.3-2.9,2.3-5.5,2.8
					c-1.6,0.3-3.1,0.4-4.4,0.3c-1.4-0.1-2.8-0.2-4.2-0.3c-1.9-0.1-3.9-0.1-6,0.1c-2.1,0.2-3.8,0.5-5,1.1c-0.4,0.1-0.8,0.4-1.2,0.9
					s-0.7,1-0.9,1.6s-0.1,1.1,0.1,1.7c0.2,0.5,0.8,0.9,1.8,1.1c2.6,0.5,5.2,0.8,8.1,0.8c2.8,0,5.6,0.1,8.3,0.2
					c2.7,0.1,5.4,0.4,7.9,0.8c2.5,0.5,4.7,1.4,6.7,2.8c2.9,2,4.7,4.4,5.5,7.2s0.6,5.6-0.7,8.5c-1.2,2.9-3.4,5.6-6.6,8.1
					c-3.2,2.5-7.2,4.4-12,5.6c-3.3,0.8-6.8,1.3-10.1,1.3c-3.4,0.1-6.7-0.2-9.9-0.8s-6.2-1.4-9-2.5s-5.2-2.3-7.3-3.6
					C531.1,837.2,531,837.1,530.8,836.9z"/>
				<path class="st32" d="M652.9,798.2c2.2-1.4,4.2-2.4,6.2-2.9s3.6-0.6,5-0.2c1.4,0.4,2.3,1.1,2.8,2.4c0.5,1.2,0.3,2.9-0.7,5
					c-0.8,1.7-2.1,3.4-4.1,5.2s-3.9,3.4-5.7,4.7c-4.5,3.3-9,6.1-13.4,8.3s-8.8,3.8-13,4.8s-8.4,1.3-12.4,0.9c-4-0.3-8-1.4-11.8-3.2
					c-2.6-1.2-4.8-2.8-6.4-4.9c-1.6-2-2.8-4.3-3.6-6.6c-0.8-2.4-1.1-4.8-1.1-7.4c0-2.5,0.4-4.9,1.1-7.1c0.9-2.8,2.9-5.7,5.8-8.7
					c2.9-3,6.3-5.8,10-8.3c3.8-2.6,7.8-4.7,12-6.5s8.2-2.9,11.9-3.2c3.1-0.3,6,0,8.7,0.8s4.9,2,6.6,3.6c1.7,1.6,2.7,3.5,3,5.8
					s-0.3,4.8-2,7.5s-3.7,5.1-6.2,7.3s-5.2,4.3-8,6.3c-2.9,2-5.9,3.9-9.1,5.6c-3.2,1.7-6.2,3.5-9.2,5.2c2.7,0.9,5.5,1,8.4,0.5
					c2.9-0.6,5.8-1.5,8.7-2.9s5.7-3.1,8.3-5.1c2.7-2,5.1-4.1,7.2-6.2C652.5,798.6,652.6,798.4,652.9,798.2z M616.7,793.1
					c-1.9,1.6-3.2,3.2-3.8,4.9c-0.6,1.6-0.8,3.7-0.6,6.2c2.4-1.4,5.1-2.9,8.1-4.6s5.8-3.4,8.3-5.1c2.6-1.7,4.6-3.3,6.2-4.9
					c1.6-1.5,2.2-2.8,1.8-3.7c-0.2-0.5-0.5-1-1-1.3c-0.4-0.4-1.1-0.5-1.9-0.4c-2.9,0.4-5.7,1.4-8.4,2.8c-2.7,1.5-4.9,2.9-6.5,4.3
					C618,791.9,617.6,792.3,616.7,793.1z"/>
				<path class="st32" d="M734.4,763.7c0.8,1.6,0.8,3.4,0.1,5.3c-0.8,1.9-2,3.7-3.6,5.2s-3.5,2.6-5.5,3.2c-2,0.6-4,0.4-5.7-0.5
					c-1.9-1.1-3.4-2.5-4.4-4.4s-2-3.6-3-5.1c-2.1-3.1-4.2-6.2-6.2-9.4c-2-3.1-4.4-6.1-6.9-8.9c-0.2-0.1-0.3-0.1-0.5-0.1
					c-0.1,0-0.4,0-0.8-0.1c-2.2,1-4.2,2.4-6.1,4.4c-1.9,2-3.4,3.8-4.5,5.6c-0.9,1.6-1.7,3.5-2.3,5.7s-0.5,3.9,0.2,5.1
					c2.9,5,4.4,7.5,7.3,12.4c0.6,1,1.2,2,2,3.1s1.4,2.2,1.8,3.5c0.4,1.2,0.4,2.5,0.1,3.9c-0.3,1.4-1.4,2.9-3.1,4.4
					c-0.9,0.8-1.9,1.5-2.9,1.9c-1,0.5-2.1,0.8-3.3,1.2c-2,0.6-3.6,0.6-4.9,0.1c-1.3-0.5-2.3-1.2-3.1-2c-0.8-0.9-1.5-1.8-1.9-2.8
					c-0.5-1-0.8-1.8-1.1-2.3c-0.7-1.4-1.8-3.5-3.3-6.1c-1.5-2.7-3-5.5-4.5-8.4c-1.6-3-3-5.8-4.4-8.5s-2.5-4.7-3.2-6.2
					c-0.7-1.4-0.7-2.8-0.1-4.3c0.7-1.5,1.7-2.8,3.1-3.9c1.4-1.1,3-1.9,4.9-2.4s3.8-0.5,5.6,0c2.5-3.5,5.6-6.8,9.3-9.9
					c3.7-3,7.5-5.4,11.4-7.1c4-1.7,7.8-2.5,11.4-2.3c3.7,0.2,6.8,1.8,9.3,5c0.1,0.1,0.4,0.4,0.9,0.9s1.1,1.2,1.9,2.2
					C724.7,750.8,727.9,755.1,734.4,763.7z"/>
				<path class="st32" d="M730.2,726c-1.8,1.1-3.6,1.7-5.3,2s-3.1,0.2-4.2-0.3c-1.1-0.5-1.9-1.4-2.2-2.7s0-2.9,0.9-4.9
					c0.7-1.7,1.8-3.1,3.4-4.4c1.5-1.3,3-2.6,4.5-3.8c-0.3-0.4-1.1-1.1-2.2-2.3c-1.2-1.2-2.4-2.5-3.6-4c-1.2-1.5-2.3-3-3.3-4.6
					c-1-1.5-1.4-2.8-1.3-3.8c0.1-2.7,1.3-5,3.4-6.8c2.1-1.8,4.5-2.7,7.1-2.6c0.5,0,1.1,0,1.7,0.1c0.6,0.1,1,0.3,1.3,0.6
					c1.7,1.7,3.6,3.5,5.3,5.4c1.7,1.8,3.4,3.7,5.2,5.5c3.5-3.4,5.2-5.1,8.5-8.6c1.3-1.3,2.7-2.2,4.2-2.6c1.5-0.4,2.9-0.4,4.1-0.1
					c1.2,0.3,2.2,1,2.9,2s0.9,2.3,0.5,3.8c-0.7,2.7-2.1,5.2-4.3,7.6c-2.2,2.4-4.5,4.7-6.9,7.1c2.7,2.8,5.3,5.5,7.9,8.3
					c2.6,2.8,5.4,5.5,8.1,8.2c1.2,1.2,2.5,2.3,3.9,3.4c1.4,1.1,2.5,2.4,3.1,4c0.5,1.3,0.4,2.7,0,4.2c-0.5,1.5-1.3,2.9-2.5,4.2
					c-1.1,1.3-2.5,2.5-4.1,3.5s-3.2,1.7-5,2.2c-0.9,0.2-1.9-0.1-3-0.7c-1.1-0.6-2.1-1.4-3.1-2.3c-1.1-1.1-2.2-2.4-3.2-3.7
					c-0.9-1-2.1-2.4-3.6-4.1c-1.5-1.7-3-3.4-4.6-5.2s-3.1-3.5-4.6-5.1c-1.4-1.6-2.5-2.9-3.4-3.9C733.4,723.3,732.3,724.2,730.2,726z
					"/>
				<path class="st32" d="M750.5,667.1c-1.7-2-2.3-4.2-1.9-6.6c0.4-2.4,1.4-4.5,2.9-6.3s3.3-3.1,5.6-3.9c2.2-0.8,4.3-0.5,6.2,0.7
					c1.9,1.3,2.9,3.1,2.7,5.5s-1,4.6-2.5,6.7c-1.5,2.1-3.3,3.7-5.6,4.6c-2.3,1-4.5,0.8-6.7-0.4C750.9,667.3,750.8,667.2,750.5,667.1
					z M810,688.2c1,1,1.4,2.5,1.4,4.3s-0.4,3.6-1.2,5.3c-0.8,1.8-1.9,3.4-3.5,4.9s-3.4,2.4-5.4,2.9c-1.1,0.3-2.2,0.3-3.1,0
					c-0.9-0.3-1.8-0.7-2.6-1.2s-1.5-1.1-2.2-1.8s-1.3-1.3-1.9-1.7c-3.1-2.6-6.3-5.3-9.3-7.9c-3-2.7-6.2-5.3-9.3-7.9
					c-1.3-1.1-2.6-2.1-4.1-3s-2.7-2.1-3.5-3.7c-0.6-1.2-0.8-2.6-0.7-4.2c0.1-1.6,0.6-3.1,1.3-4.6s1.8-2.8,3-3.9
					c1.3-1.2,2.8-1.8,4.5-2.1c2.1-0.4,3.7-0.3,4.8,0.5s2.4,1.8,3.9,3c1.9,1.5,3.7,2.9,5.6,4.4c1.9,1.5,3.8,2.8,5.6,4.2
					c2.7,1.9,5.4,4,8,6s5.3,4.1,7.9,6.1C809.6,687.9,809.7,688,810,688.2z"/>
				<path class="st32" d="M856.7,604.5c2.2-0.1,3.7,0.7,4.3,2.6c0.6,1.8,0.7,4,0,6.5c-0.6,2.5-1.8,4.9-3.6,7.3
					c-1.8,2.4-3.9,4.2-6.3,5.3c-0.3,3.8-0.9,7.3-2,10.6c-1,3.2-2.6,6.7-4.6,10.4c-3,5.6-6.2,10.2-9.6,13.9c-3.4,3.7-6.8,6.3-10.2,8
					s-6.7,2.3-9.8,1.9c-3.2-0.4-6.2-1.9-8.9-4.4c-1.1-1.1-2.1-2.3-2.9-3.7c-0.8-1.4-1.6-2.8-2.3-4.2c-0.8-1.6-1.4-3.6-1.9-5.9
					c-0.5-2.3-0.9-4.5-1-6.6c-0.6-7.5,0.5-15.5,3.1-24.2c0.5-1.5,1.2-3.5,2.2-5.9s2.1-4.9,3.4-7.2c1.3-2.4,2.6-4.6,4.1-6.7
					c1.5-2.1,2.9-3.4,4.4-4.1c1.2-0.5,2.1-0.9,2.9-1c0.8-0.1,1.5-0.1,2.1,0.2c0.7,0.2,1.3,0.6,2,1s1.6,0.8,2.7,1.4
					c1.8,0.8,3.5,1.7,5.1,2.5s3.4,1.6,5.1,2.3c0.6,0.2,1.3,0.6,2.2,1s1.9,0.8,3,1.2s2.1,0.7,3.1,0.9c1,0.3,1.8,0.4,2.6,0.3
					C850.2,606.5,852.4,605.9,856.7,604.5z M835.2,637.6c0.3-1.3,0.5-3,0.8-4.8s0.4-3.4,0.3-5c-3.7-0.8-7.3-2-10.6-3.6
					s-6.6-3.4-9.8-5.4c-1.9,4.8-2.9,9.4-3.1,14.1c-0.2,4.6,0.5,8.4,2.1,11.3c0.6,1.2,1.4,2.4,2.2,3.4c0.8,1.1,1.8,1.9,2.8,2.4
					c1.4,0.7,2.9,0.9,4.5,0.3c1.6-0.5,3.1-1.5,4.5-2.8s2.7-2.9,3.8-4.6C833.9,641.2,834.9,639.3,835.2,637.6z"/>
				<path class="st32" d="M869.4,565.7c1.1-1.2,2.3-2,3.6-2.7c1.3-0.6,2.5-0.8,3.6-0.5c1,0.3,1.9,1,2.5,2.3c0.6,1.2,0.7,3.2,0.4,5.7
					c-0.3,2-0.9,4.1-1.9,6.3s-2.2,4.3-3.5,6.2c-1.4,2-2.8,3.6-4.2,4.9c-1.4,1.3-2.8,2.2-4,2.5c-0.4,0.1-0.9,0.1-1.3,0.1
					c-0.5,0-0.9-0.1-1.2-0.3c-17.9-7.2-35.8-14.4-53.7-21.5c-1.5-0.6-2.4-2-2.7-4.2c-0.4-2.2-0.3-4.4,0.3-6.6c0.3-1,0.8-2.1,1.5-3.2
					c0.7-1.1,1.4-2.1,2.3-3c0.8-0.9,1.7-1.5,2.6-2c0.9-0.5,1.7-0.6,2.4-0.3c1.7,0.6,4,1.3,6.8,2.3c2.8,0.9,5.9,2,9.3,3
					c3.4,1.1,6.9,2.2,10.5,3.4s7,2.4,10.3,3.5c3.3,1.2,6.3,2.2,9,3.1c2.7,0.9,4.9,1.7,6.5,2.4C868.8,566.6,869,566.3,869.4,565.7z"
					/>
			</g>
		</g>
		<circle class="st33" cx="120.4" cy="439.3" r="29.7"/>
		<circle class="st33" cx="856.5" cy="439.3" r="29.7"/>
	</g>
</g>
</svg>
