<?xml version="1.0" encoding="utf-8"?>
<!-- Generator: Adobe Illustrator 27.0.0, SVG Export Plug-In . SVG Version: 6.00 Build 0)  -->
<svg version="1.1" id="Layer_1" xmlns="http://www.w3.org/2000/svg" xmlns:xlink="http://www.w3.org/1999/xlink" x="0px" y="0px"
	 viewBox="0 0 800 600" style="enable-background:new 0 0 800 600;" xml:space="preserve">
<style type="text/css">
	.st0{fill:#FEFEFE;}
	.st1{fill:#082947;}
	.st2{fill:#FECB75;}
	.st3{fill:#FE9C49;}
	.st4{fill:#F1484B;}
	.st5{fill:#F1EAD8;}
	.st6{fill:#195F8C;}
</style>
<g>
	<path class="st0" d="M689,100.6c0,161.1,0,322.2,0.1,483.4c0,4.2-1,5.2-5.2,5.2C497.2,589,310.5,589,123.8,589
		c-0.1-2.9,2.4-3,4.1-3.7c35.3-14.5,70.5-29.1,105.8-43.5c11.6-4.8,23.2-9.7,34.9-14.4c4-1.6,6.8-4.6,9.8-7.5
		c96.6-96.6,193.2-193.2,289.7-289.7c34.1-34.1,68.2-68.3,102.5-102.4c6.8-6.7,12.5-14,15.1-23.3C686.2,102.9,686.2,100.5,689,100.6
		z"/>
	<path class="st1" d="M687.8,100.3c-3.2,13.5-13.8,24.9-23.8,35c-99,100-198,200.1-296.9,300.1c-38.6,39-78,78.6-126.5,104.3
		c-28.9,15.2-60.2,25.1-90.1,38.2c-9.5,4.1-19.5,8.7-30.1,8.7c-3.4,0-9,0.1-9.1-4.5c-0.1-4.3,2.9-9,4.5-12.9
		c8.2-20,15.4-40.5,23.3-60.6c7.3-18.7,15.3-37.1,25.2-54.6c26.2-46.5,64.6-84.7,102.5-122.2c99.5-98.5,199.1-197,298.6-295.5
		c12-11.8,25.7-24.4,42.5-24.7C620,11.5,631.2,18,641,25.4c12.8,9.7,24.3,21.2,34,34c7.3,9.7,13.9,20.9,13.8,33.1
		C688.7,95.2,688.4,97.8,687.8,100.3z"/>
	<path class="st2" d="M475.9,224.8c-7.1-4.1-9.6-3.6-16.2,2.9c-76.6,76.5-153.1,153.1-229.6,229.6c-5.2,5.2-5.2,5.2-10.3,0.1
		c-7.2-7.2-14.2-14.5-21.6-21.5c-3.3-3.1-2.9-4.8,0.1-7.8c79.7-79.5,159.3-159.1,238.9-238.7c21.1-21.1,42.3-42.2,63.3-63.5
		c2.8-2.8,4.3-2.8,7,0c7.8,8.2,15.7,16.2,23.9,23.9c2.8,2.7,2.3,4.1-0.2,6.5c-13.5,13.3-26.9,26.8-40.3,40.2
		c-5.6,5.6-5.9,8-2.5,14.9C486.7,218.3,481.7,222,475.9,224.8z"/>
	<path class="st3" d="M475.9,224.8c4.3-4.2,9.3-7.9,12.5-13.3c6.9,4.1,9.6,3.8,15.3-1.8c13.5-13.4,26.9-26.8,40.2-40.3
		c2.8-2.8,4.2-2.8,6.9,0c7.6,8,15.4,15.9,23.5,23.5c3.3,3.1,2.6,4.6-0.2,7.4c-26,25.8-51.9,51.8-77.8,77.7
		c-74.6,74.6-149.2,149.1-223.6,223.8c-3.5,3.5-5.2,3.7-8.6,0c-7.3-7.9-14.9-15.4-22.7-22.7c-3.2-3-2.7-4.5,0.2-7.3
		c53.8-53.6,107.5-107.3,161.2-161c23.5-23.5,47.1-47,70.6-70.6C479,234.4,479.5,231.6,475.9,224.8z"/>
	<path class="st4" d="M606.1,29.9c9.7,0.2,16.6,3.1,22.4,8.8c11,11,22.2,21.9,33.1,33.1c12.2,12.5,12.1,28.6-0.2,41.1
		c-10.8,11-21.8,21.7-32.6,32.7c-2.3,2.3-3.6,2.8-6.2,0.2c-22.5-22.7-45.1-45.3-67.8-67.7c-2.8-2.8-2.2-4.2,0.2-6.7
		c11-10.8,21.8-21.8,32.8-32.6C593.8,32.8,600.5,29.9,606.1,29.9z"/>
	<path class="st5" d="M185.2,449.1c0.8,0.7,1.6,1.4,2.4,2.1c20.3,20.3,40.6,40.7,61,60.9c2.6,2.6,3.3,3.8-0.9,5.5
		c-20,8-39.9,16.3-59.8,24.6c-2.7,1.1-4.3,0.9-6.4-1.2c-7.3-7.6-14.8-15-22.3-22.3c-1.7-1.6-2.4-3-1.4-5.4
		c8.8-21.1,17.5-42.2,26.2-63.3C184.2,449.7,184.6,449.5,185.2,449.1z"/>
	<path class="st0" d="M538.6,88.1c1.1,1,1.9,1.7,2.7,2.5c22.8,22.8,45.6,45.7,68.5,68.4c1.9,1.9,2.6,3,0.3,5.3
		c-5.8,5.4-11.3,11-16.7,16.7c-2.2,2.3-3.4,1.7-5.3-0.2c-22.8-22.9-45.6-45.7-68.5-68.5c-2-2-2.5-3.2-0.2-5.3
		c5.7-5.4,11.2-11.1,16.8-16.7C536.9,89.6,537.7,88.9,538.6,88.1z"/>
	<path class="st6" d="M137,563.4c3.9-9.5,7.2-17.8,10.5-26.1c0.9-2.3,2.2-3,4.1-1c4.1,4.1,8.2,8.2,12.3,12.3
		c1.9,1.9,1.5,3.2-0.9,4.2C154.9,556.2,146.6,559.5,137,563.4z"/>
</g>
</svg>
