<?xml version="1.0" encoding="utf-8"?>
<!-- Generator: Adobe Illustrator 27.0.0, SVG Export Plug-In . SVG Version: 6.00 Build 0)  -->
<svg version="1.1" id="Layer_1" xmlns="http://www.w3.org/2000/svg" xmlns:xlink="http://www.w3.org/1999/xlink" x="0px" y="0px"
	 viewBox="0 0 800 600" style="enable-background:new 0 0 800 600;" xml:space="preserve">
<style type="text/css">
	.st0{fill:#ED4234;}
	.st1{fill:#C4202F;}
	.st2{fill:#424240;}
	.st3{fill:#424241;}
	.st4{fill:#435863;}
	.st5{fill:#211112;}
	.st6{fill:#C4E5EB;}
	.st7{fill:#6D8097;}
	.st8{fill:#AC2334;}
	.st9{fill:#221113;}
	.st10{fill:#ACA9A4;}
	.st11{fill:#565A53;}
	.st12{fill:#575952;}
</style>
<g>
	<path class="st0" d="M739.5,299.1c17.8,20.5,13.6,45.4,13.8,69.4c-7.8,5.6-13.5,1.4-17.9-4.7c-5.5-7.5-10.3-15.6-16.4-22.6
		c-15.6-17.8-34-31.5-58-35.4c-37.2-6.1-98.3,17.5-106.2,77.2c-1.7,13.1-3.5,14.4-17,15.6c-51,4.6-102.2,1.5-153.2,2.1
		c-47.8,0.6-95.5,0.1-143.3,0.1c-16.9,0-16.6-0.2-21.4-15.8c-5.5-17.9-12.6-35.3-25.5-49.3c-34.6-37.6-73.7-40.8-112.6-5.5
		c-9.7,8.8-17.7,19.2-23.6,31c-3.2,6.3-7.7,10.1-15.3,7.2c-1.6-41.3,1.7-82,16-121.2c8.7-24,19.9-46.8,36.2-66.5
		c6.8-8.2,6.2-12.9-2.9-17.6c-2.4-1.3-5.5-2.5-6.5-6.8c19.1-4.8,38.6-6.9,57.9-9.2c67.5-8.1,135.2-11.9,203.2-6.8
		c35,2.6,69.8,6.3,103.7,15.8c2.7,4.6,6.4,8.1,11.1,10.7c28.5,15.8,51.5,37.9,71.3,63.4c6,7.7,12.2,10,22,8.9c18.4-2,37-4,55.6-3
		c31.5,4.2,60.5,15.9,88.9,29.7c-0.5,4.8-4.6,4.3-7.5,4.7c-9.1,1.2-10.6,6.8-9,14.4c3.2,15,25.3,35.4,40.7,37.8
		c12.4,1.9,16.4-2.4,14-14.7C737,304.9,733.4,300.9,739.5,299.1z"/>
	<path class="st1" d="M42.9,368.4c6-1.7,10.4-4,13.8-10.7c12.9-25.7,33.9-43.7,60.8-52.8c26-8.8,49,1.3,68.8,18.1
		c20.9,17.7,32.3,41.5,37.8,67.9c1.3,6.2,4,7,8.9,6.9c15.3-0.1,30.6-0.1,45.9-0.1c72,0,144.1-0.3,216.1,0.1
		c16.1,0.1,31.9-2.1,47.9-2.3c5.4-0.1,8.1-2.3,8.5-7.9c3.5-46.8,36.7-74.3,77.1-83.7c40-9.4,69.8,8.1,94.4,37.7
		c4.7,5.7,9.5,11.6,12.9,18.1c4,7.4,9.5,10,17.4,8.8c6.3,0.1,9.5,2.8,8.5,9.5c-0.4,2.9,0,5.9-0.1,8.8c-0.9,27.7-5.7,32.1-33.5,30.7
		c-0.8-0.9-1.4-1.8-1.9-2.9c-3.7-12.1-4.5-24.6-9.9-36.5c-18.4-40.3-73.5-49.5-104-31.9c-21.7,12.5-29.7,33.4-33.1,56.8
		c-0.6,4.3,0.6,9.1-3.4,12.5c-50.6-0.1-101.3-0.1-151.9-0.2c-73-0.2-146-0.5-219-0.7c-1-0.7-1.5-1.6-1.8-2.7
		c-2.6-13.9-5.8-27.5-11.7-40.6c-8.4-18.6-22.6-30.2-42.3-32.4c-36-3.9-70.4,11.7-79.6,51.9c-1.8,8-3.1,16.1-4.3,24.2
		c-0.4,1.1-1,2-1.7,3c-6.2,4.2-10-0.3-12.7-4.4c-7.5-11.6-10.9-24.8-12.8-38.3C37.6,371.6,38.1,368.3,42.9,368.4z"/>
	<path class="st2" d="M63.6,417.8c-0.1-0.8,0-1.5,0.2-2.2c7.6-2.9,9.6-8.4,10.2-16.4c2.3-29.7,27.9-54.7,56.1-56
		c31.8-1.4,58.5,19.4,64.5,50.3c1.4,7.5,0.6,16.1,10,19.5c0.1,0.5,0.2,1,0.3,1.5c-9-0.6-13.6,2.7-17.2,12
		c-8.8,22.4-26.8,34.6-50.8,35.4c-24.5,0.9-43.6-10.2-53.8-32.5C78.6,419.6,73.7,415.6,63.6,417.8z"/>
	<path class="st3" d="M727.6,415.5c0.3,0.6,0.5,1.3,0.6,2c-1.1,0.1-2.2,0.5-3.3,0.4c-11.8-1.3-19.3,0.6-25.3,14.1
		c-9.5,21.6-29.5,31.3-53.1,30.1c-23.6-1.2-40.5-13.5-50.4-35.2c-1.8-3.9-1.7-9-6.8-10.9c-2.8-34.3,12-59.3,40.1-69.4
		c36.6-13.1,78.2,14.2,80.3,51c0.5,9.7,1.2,17.8,14.1,15.9C725.3,413.2,726.6,414.3,727.6,415.5z"/>
	<path class="st4" d="M610.6,236.1c-12.5,4.2-25.7,2.2-38.3,4.8c-22.4,4.7-38.6-1.1-52.4-21.1c-15.7-22.7-38.3-39-62.6-52.6
		c-3.6-2-11.3-3.5-6.6-11.2c51.5,11.6,99,31.6,138.5,67.5C595.5,229.5,601.8,234.8,610.6,236.1z"/>
	<path class="st5" d="M727.6,415.5c-6.3-0.1-13.8,1.9-18.6-0.8c-5.7-3.2-1-11.4-2.1-17.5c-6.1-32.8-28.9-52.1-62.2-50.9
		c-27.2,1-52,26.4-52.9,53.7c-0.2,5.3,2.2,11.2-2.4,15.9c-4.5-0.1-9-0.3-13.5-0.4c-0.1-26.5,6.4-51,28.3-67.3
		c44.4-33.1,112.4-5,121.8,49.8C727,403.6,729.6,409.4,727.6,415.5z"/>
	<path class="st6" d="M739.5,299.1c-3.5,4.3,1.2,7.4,1.9,11c2,11.2-3.1,17.3-14.4,16.5c-18.7-1.4-44.6-24.9-47.8-43.3
		c-1.7-9.9,2.6-15.1,13.1-15.7c2.5-0.1,5.3,1,7.1-1.8C714.9,274.4,728.7,285,739.5,299.1z"/>
	<path class="st4" d="M313.6,184.8c-1.9,17.8-4.5,35.5-5.5,53.3c-0.5,9.8-4.7,11.4-13.2,11.4c-49.3-0.3-98.5-0.2-147.8-0.2
		c-25.1,0-25.2,0-21.4-24.7c0.8-5.2,2-10.2,4.8-14.8c18.9-13.1,41.4-16,62.9-21c36.1-8.4,73-7.8,109.8-7.1
		C306.9,181.8,310.7,181.9,313.6,184.8z"/>
	<path class="st4" d="M487.1,213.7c9.3,7.2,15.9,16.7,21.9,26.6c3.3,5.5,3,9.1-4.8,9c-59.3-0.1-118.7-0.1-178,0.1
		c-7,0-8.1-3.1-7.5-9c1.9-18.5,3.7-37,5.5-55.5c9.8-3.6,19.9-1.5,29.5-0.3c35,4.6,69.8,10.1,104.3,18.2
		C468.3,205.3,478.2,208.2,487.1,213.7z"/>
	<path class="st7" d="M313.6,184.8c-14.1,0-28.3,0-42.4-0.1c-47.5-0.3-93.5,6.8-137.5,25.6c-0.8,0.4-2.1-0.4-3.2-0.6
		c0.9-9.1,5.4-16.9,9.5-24.7c7.7-14.7,22-16.4,36.3-17.6c42.2-3.6,84.5-6.7,126.9-7.3c9.3-0.1,15.7,0.5,11.5,12.4
		C313.4,176.4,313.9,180.7,313.6,184.8z"/>
	<path class="st7" d="M487.1,213.7c-23.8-5.4-47.5-11.3-71.5-16c-25.8-5.1-51.8-9.4-78.2-10.7c-4.4-0.2-8.8-1.3-13.2-2
		c0.1-2.2,0-4.4,0.3-6.6c2-18.5,2-18.9,19.5-17.5c29.7,2.4,59.4,3.4,88.4,11.9C456.3,179.7,471.2,197,487.1,213.7z"/>
	<path class="st8" d="M262.2,263.3c5.2,0,10.4-0.1,15.6,0c3.1,0.1,4.9,1.7,4.6,5c-0.2,2.7-2.1,3.9-4.6,3.9
		c-11.1,0.1-22.3,0.1-33.4,0c-2.7,0-5.4-1.1-5.4-4.4c0-3.3,2.7-4.3,5.4-4.4C250.3,263.2,256.2,263.3,262.2,263.3z"/>
	<path class="st8" d="M343.7,263.2c4.5,0,8.9-0.1,13.4,0c3.1,0,6.1,0.5,6,4.7c-0.1,3.4-2.4,4.3-5.3,4.3c-10.4,0-20.8,0-31.3,0
		c-2.8,0-5.3-0.7-5.5-4.1c-0.2-4.2,2.6-4.8,5.9-4.9C332.5,263.2,338.1,263.2,343.7,263.2z"/>
	<path class="st9" d="M204.6,413c-7.9,1-11.5-0.5-11.9-10.3c-1.6-41-40.8-66.6-79.2-52.7c-20.7,7.5-37.2,30.2-36.6,52.7
		c0.3,10.5-3.1,14.3-13,12.9c-3.1-55.5,47.4-94.9,98.1-76.6c20.6,7.4,30.8,23.8,37.2,43C202.5,391.8,206.5,402,204.6,413z"/>
	<path class="st10" d="M135.2,370.8c17.8,0.2,33.4,16.3,32.9,34.1c-0.4,17.4-15.9,32.5-33.3,32.6c-17.9,0-33.6-15.7-33.4-33.6
		C101.7,385.7,117.1,370.6,135.2,370.8z"/>
	<path class="st10" d="M649.5,370.2c20.1,0.1,34.6,14.8,34.3,34.7c-0.3,18.9-15.4,33.4-34.8,33.2c-18.7-0.1-33.8-15.4-34-34.4
		C614.8,385.1,630.1,370.2,649.5,370.2z"/>
	<path class="st11" d="M118.8,403.6c0.2-9,7.7-16.7,16-16.7c8.6,0.1,16.2,8.6,15.9,18c-0.3,9.5-6.9,15.7-16.7,15.4
		C124.4,420,118.6,413.7,118.8,403.6z"/>
	<path class="st12" d="M665.8,404.4c-0.1,9-7.4,15.9-16.6,15.9c-9,0-16.8-7.7-16.4-16.1c0.5-9.1,9-17.4,17.4-17.2
		C658.4,387.2,665.9,395.6,665.8,404.4z"/>
</g>
</svg>
