<?xml version="1.0" encoding="UTF-8"?>
<svg id="Layer_1" data-name="Layer 1" xmlns="http://www.w3.org/2000/svg" viewBox="0 0 277.25 264.11">
  <defs>
    <style>
      .cls-1 {
        fill: #644a99;
      }

      .cls-2 {
        fill: #624797;
      }

      .cls-3 {
        fill: #644898;
      }

      .cls-4 {
        fill: #fcfcfd;
      }

      .cls-5 {
        fill: #fdfcfd;
      }

      .cls-6 {
        fill: #674c9f;
      }

      .cls-7 {
        fill: #644998;
      }

      .cls-8 {
        fill: #624897;
      }

      .cls-9 {
        fill: #634898;
      }

      .cls-10 {
        fill: #634798;
      }

      .cls-11 {
        fill: #fefefe;
      }

      .cls-12 {
        fill: #624a99;
      }

      .cls-13 {
        fill: #614898;
      }

      .cls-14 {
        fill: #634b9a;
      }

      .cls-15 {
        fill: #634999;
      }

      .cls-16 {
        fill: #624898;
      }

      .cls-17 {
        fill: #fdfdfd;
      }
    </style>
  </defs>
  <rect class="cls-11" x="-86.73" y="-136.19" width="504.53" height="588.09"/>
  <g>
    <path class="cls-16" d="M127.19,51.69c78-8.77,119.1,84.03,60.05,133.74-56.66,47.7-141.49-7.74-121.46-79.81,7.46-26.83,33.36-50.78,61.4-53.93Z"/>
    <path class="cls-16" d="M69.76,51.41l-10.62,3.78c-14.16,10.07-5.65,28.81-9.61,42.72-4.4,15.43-37.12,30.68-16.08,50.14-5.23.11-12.46-5.15-13.63-10.93-2.9-14.34,9.84-25.84,16.22-36.69,5.18-8.81,3.57-15.43,5.19-24.71,2.81-16.14,9.27-31.45,28.53-24.31Z"/>
    <path class="cls-13" d="M126.35,227.6c-7.38,19.11-25.9,8.57-36.34-1.56-3.95-3.83-6.79-9.56-11.35-13.21-13.48-10.78-56.98-12.56-38.24-41.81,2.51-2.37,1.36-.5,1.17,1.15-3.5,30.35,32.41,18.11,46.78,35.22,9.66,11.5,18.75,33.76,37.99,20.2Z"/>
    <path class="cls-2" d="M190.43,37.51l-4.79-8.54c-14.37-12.24-29.79,3.15-43.74,4.31-13.6,1.14-19.56-6.71-31.29-8.31-11.04-1.51-18.47,1.17-23.22,11.46-2.46-13.79,8.58-20.54,21.19-20.21,9.99.27,21.43,6.56,31.15,6.4s20.72-6.32,30.95-6.26c12.89.08,21.96,7.6,19.75,21.12Z"/>
    <path class="cls-8" d="M152,229.75c7.59,2.05,11.76,3.26,19.16-.6,11.74-6.13,14.71-21.84,25.34-28.05,13.29-7.76,45.98-3.44,39.87-30.09,11.66,12,3.42,22.54-8.54,29.38-8.33,4.77-19.76,6.05-26.65,10.73-5.67,3.85-10.8,12.64-16.59,17.58-10.74,9.17-22.79,15.47-32.6,1.05Z"/>
    <path class="cls-10" d="M243.84,148.57c11.55-9.5,7.59-19.92-.02-30.4-4.61-6.34-11.76-11.01-14.69-18.42-3.78-9.57-.51-15.73-1.33-25.37-.48-5.67-2.88-14.47-7.5-18.13l-11.7-4.83c16.62-6.76,24.09,5.9,27.25,20.25,1.38,6.25.89,11.72,1.69,17.53,1.7,12.34,13.36,20.63,17.78,32.41,4.88,13,3.53,23.69-11.49,26.97Z"/>
    <path class="cls-1" d="M211.8,28.98l-18.17,35.23c-1.41,1.01-9.33-5.47-10.62-7.05-.37-1.77,21.92-23.43,25.05-26.05,1.2-1.01,1.74-2.59,3.74-2.12Z"/>
    <polygon class="cls-1" points="60.15 146.44 63.36 158.18 23.85 164.59 56.18 147.27 60.15 146.44"/>
    <path class="cls-15" d="M254.51,163.54c.24,2.04-2.08.69-3.21.55-12.13-1.57-24.17-4.34-36.29-5.91l3.22-11.74,36.29,17.1Z"/>
    <path class="cls-7" d="M145.58,208.39c-2.53,11.32-3.48,22.96-5.69,34.35-.27,1.4-.12,5.17-1.77,5.16l-5.35-39.51h12.82Z"/>
    <path class="cls-3" d="M95.4,57.78c-3.01-.19-8.32,7.51-10.71,5.93l-17.04-33.68,27.76,27.75Z"/>
    <path class="cls-17" d="M138.83,57.14c92.33-.08,91.4,140.84-1.29,139.56-89.61-1.24-89.96-139.48,1.29-139.56Z"/>
    <path class="cls-6" d="M128.27,62.37c67.75-8.1,103.35,72.47,52,115-38.96,32.26-99.44,8.69-106.1-41.21-4.53-33.98,18.89-69.59,54.1-73.79Z"/>
    <path class="cls-11" d="M131.49,64.53c54-5.87,89.71,53.27,58.76,98.27-24.08,35-75.13,35.15-101.23,2.31-29.93-37.67-4.97-95.42,42.47-100.58Z"/>
    <path class="cls-9" d="M145.05,101.59c9.3,1.87,12.15,14.28,6.8,21.79-1.04,1.46-4.57,1.85-3.05,3.82.36.47,4.19,1.1,5.59,4.57,1.98,4.92,1.14,13.07-2.91,16.83-1.65,1.53-8.79,4.25-10.7,4.25h-20.29c-.46,0-1.8-1.67-1.55-2.56l1.02-48.7c7.34,1.02,18.26-1.38,25.1,0Z"/>
    <path class="cls-12" d="M168.01,109.06v26.16c0,6.7,14.95,7.44,14.95,1.07v-27.23h5.34v29.37c0,2.99-9.08,7.79-12.26,7.84-3.9.06-13.37-4.99-13.37-8.91v-28.3h5.34Z"/>
    <path class="cls-14" d="M94.33,109.06v32.04h18.15c.21,0,.21,4.27,0,4.27h-23.49v-36.31h5.34Z"/>
    <path class="cls-4" d="M127.43,145.37v-16.02c27.3-4.2,27.72,20.46,0,16.02Z"/>
    <path class="cls-5" d="M127.43,108c7.25.31,19.65-2.45,19.32,8.02s-12.37,6.29-19.32,6.93v-14.95Z"/>
  </g>
</svg>