<?xml version="1.0" encoding="utf-8"?>
<!-- Generator: Adobe Illustrator 27.0.0, SVG Export Plug-In . SVG Version: 6.00 Build 0)  -->
<svg version="1.1" id="Layer_1" xmlns="http://www.w3.org/2000/svg" xmlns:xlink="http://www.w3.org/1999/xlink" x="0px" y="0px"
	 viewBox="0 0 500 500" style="enable-background:new 0 0 500 500;" xml:space="preserve">
<style type="text/css">
	.st0{clip-path:url(#SVGID_00000182515681197500749810000009190615405125721775_);}
	.st1{fill-rule:evenodd;clip-rule:evenodd;fill:#008037;}
	.st2{clip-path:url(#SVGID_00000050650954394594845830000015351334144006723461_);}
	.st3{fill-rule:evenodd;clip-rule:evenodd;fill:#FFCC29;}
</style>
<g>
	<g>
		<defs>
			<rect id="SVGID_1_" x="12" y="52.6" width="483" height="406.5"/>
		</defs>
		<clipPath id="SVGID_00000163058390031542447110000001091960779667909256_">
			<use xlink:href="#SVGID_1_"  style="overflow:visible;"/>
		</clipPath>
		<g style="clip-path:url(#SVGID_00000163058390031542447110000001091960779667909256_);">
			<path class="st1" d="M12.9,54.5c24.7,91.7,91.6,166.1,179.9,200c-22.1-68.3-68.2-126.2-129.7-162.7
				c111.6,51.8,182.2,162.9,184.6,284v33.5c-8-5.6-19.3-9.2-31.7-9.2c-10.9,0-21,2.7-28.8,7.3l-0.1,0.1c-2.1,1.3-4.2,2.7-5.9,4.2
				c-12.7,9.7-23.1,22.5-30,37c-1.2,2.7,0.1,5.9,2.7,7.3c2.7,1.3,5.9,0.2,7.4-2.5c2.5-5.1,5.6-10,8.9-14.4c3.6-5.3,8.9-9.3,15-10.9
				c-4.6,2.5-8.4,6.2-10.9,10.8c5.8,11.7,22.2,20.1,41.6,20.1c24.2,0,43.8-13.2,43.8-29.4h0.1V376c2.4-121.1,73-232.2,184.6-284
				c-61.6,36.5-107.7,94.3-129.7,162.7c88.3-34,155.1-108.4,179.9-200C368.9,91.6,277.8,196.1,254,320.4
				C230.1,195.9,139,91.5,13.2,54.7L12.9,54.5z"/>
		</g>
	</g>
	<g>
		<defs>
			<rect id="SVGID_00000128482544161982078670000007027343143503140504_" x="112.8" y="22.8" width="286.7" height="295.9"/>
		</defs>
		<clipPath id="SVGID_00000059280833282739269990000015747861532259045763_">
			<use xlink:href="#SVGID_00000128482544161982078670000007027343143503140504_"  style="overflow:visible;"/>
		</clipPath>
		<g style="clip-path:url(#SVGID_00000059280833282739269990000015747861532259045763_);">
			<path class="st3" d="M127.8,96.3c40.6,37.4,73.3,82.7,96,133.1c-24.1-47.4-59.2-89-102.3-121C123.4,104.2,125.5,100.2,127.8,96.3
				z M394,121.2C328.2,168,283,238,266.6,316.3c63.7-4.9,116-50.4,131.2-110.6c-24,20-51.3,36.4-81,48c-0.1,0.2-0.1,0.5-0.2,0.8
				c0-0.2,0.1-0.5,0.1-0.7c-0.6,0.2-1.3,0.5-1.9,0.7c1.8-5.4,3.6-10.7,5.6-15.9c12.6-45,38.4-85.5,74.2-116.2
				c-0.1-0.5-0.2-0.8-0.5-1.3V121.2z M240.9,316.1c-16.3-77.2-60.6-146.5-125-193.2c-0.7,2.3-1.5,4.6-2.1,6.9
				c36.1,33.7,63.5,76.5,79,124.3c0.4,0.1,0.8,0.4,1.2,0.5c-0.4-0.1-0.7-0.2-1.2-0.4c0,0.1,0.1,0.2,0.1,0.4c-0.8-0.4-1.7-0.6-2.5-1
				c-23.9-6.7-47.2-15-69.9-24.8c20.9,47.7,66.3,82.1,120.4,87.2V316.1z M121.4,108.7C189,159.2,236.1,233.4,253,316.8
				c0.5,0,1,0,1.4,0c1.1-5.3,2.3-10.6,3.6-15.8c14.5-81.6,58.4-155.3,123.2-206.9c-25.8-42.8-72.6-71.3-126.1-71.3
				C195.7,22.8,144.6,58.1,121.4,108.7z"/>
		</g>
	</g>
	<g>
		<g transform="translate(183.346326, 275.364102)">
		</g>
	</g>
</g>
</svg>
