<?xml version="1.0" encoding="UTF-8"?>
<svg id="Layer_1" data-name="Layer 1" xmlns="http://www.w3.org/2000/svg" viewBox="0 0 513.2 513.2">
  <defs>
    <style>
      .cls-1 {
        fill: #1d355f;
      }
    </style>
  </defs>
  <path class="cls-1" d="M317.1,197.87c.88,0,1.55,0,2.43-.22h.22c-.66.66-1.32,1.32-2.21,1.77-1.1.88-2.65,1.32-3.97,1.32-4.64,0-7.95-5.96-7.95-5.96-.66-1.1-1.1-2.43-.66-3.75v-.88c.22.22.22.44.44.66l.22.22c1.99,2.87,4.64,4.86,7.73,6.4,1.1.22,2.21.44,3.75.44M320.63,177.11c-2.21,2.43-4.64,4.64-7.73,5.96h-.22c-.66.66-1.77,1.1-2.65,1.55,0-1.32.22-2.43.66-3.75,2.43-7.07,5.3-7.51,5.3-7.51h.22c.88-.22,1.77-.44,2.43-.44,1.32,0,1.55.44,1.77.66.66,1.1.66,2.21.22,3.53M297.01,173.14c.22-.44.66-.88,1.32-1.1h.22c1.77-1.32,3.09-2.65,4.42-4.42,1.32-1.55,2.65-3.09,3.75-4.86,3.97,0,32.68-.66,33.12-.66,1.32-.22,2.87.22,3.75,1.32.66.88.66,1.99.44,3.09v.22c-.44,6.62-4.2,12.36-10.16,15.24-2.43,1.1-5.3,1.77-7.95,1.99-.66.22-1.1.22-1.77,0h0c2.21-.88,4.2-6.18,4.86-8.83.44-1.99,0-3.97-1.1-5.74-2.21-2.43-5.08-3.75-8.39-4.2h-.22c-5.52.66-10.6,3.97-13.69,8.61-1.55,3.53-3.53,7.07-6.18,9.94v.22c-.44.66-.66,1.32-1.32,1.99.44-3.53.22-7.07-.88-10.38-.22-.66-.22-1.55-.22-2.43M282.43,187.93h1.55c1.1,1.55,1.32,3.31,1.1,5.3-1.32,5.96-9.72,11.04-9.72,11.04-3.53,1.77-7.29,2.87-11.26,3.31-2.65.22-3.97.66-4.2,1.77s1.32,1.99,1.77,2.21h9.05c.66,0,.88.22.88.44s-.88,1.55-1.77,2.21l-.22.22c-.66,1.32,0,2.87,1.1,3.53.66.44.88.88.88,1.1s-.66,1.1-1.1,1.55c-1.99.22-3.75.22-5.3.44-3.09.22-5.74.44-8.83.44-1.99,0-4.2,0-6.62-.22-.88,0-1.32-.22-1.55-.44,0-.22.22-1.1.88-1.77,3.53-.22,9.27-.44,12.36-.44h3.09l.22-.44c.66-.66.88-1.77.66-2.65-.44-.88-1.32-1.32-2.21-1.32h-1.1c-2.21,0-9.49-.22-9.49-.22-.88,0-1.77,0-2.65-.22.22-.22.66-.44,1.1-.66,2.65-.44,4.2-1.1,4.42-2.43.44-1.55-1.77-3.09-1.99-3.09h-.22c-13.03-3.75-12.81-13.25-12.59-15.46,1.99,0,6.62-.44,6.62-.44.88.22,1.99-.22,2.65-.88.44-.88.66-1.77.44-2.65,11.04-.66,22.3-1.55,24.29-1.77l1.32,1.77.22.22h.44c2.65-.44,4.64-.44,5.74-.44M251.08,140.24c1.77-1.99,4.2-2.87,6.62-2.87.66,0,1.32,0,1.99.22,5.08.88,6.4,4.86,7.95,9.49,0,4.64-1.99,7.29-6.18,8.17-1.55.44-2.87.44-4.42.44-3.97.44-7.51-2.43-7.95-6.4-.88-3.09,0-6.4,1.99-9.05M246,178.22c1.32-4.2,3.09-8.17,4.86-12.14,1.55-2.87,4.64-4.64,7.95-4.86,1.55,0,3.31.44,4.64,1.1h.22c5.52,2.43,10.38,6.18,14.13,11.04l.22.22c2.21,2.21,2.21,3.31,2.21,3.31,0,0-.66.44-.66.66h-.22c-5.74,2.21-21.42,2.21-21.64,2.43-3.53.22-6.18.22-8.39.22h-3.75c0-.66.22-1.55.44-2.21M187.71,167.4c-.22,0-.44,0-.44-.22l.44.22ZM166.07,145.98c.44-.66,1.77-1.1,2.65-1.1h.22c1.32-.66,2.65-1.32,3.97-1.99l.22-.22c.44-.44,1.1-.66,1.77-.88,1.1.22,1.99.66,2.43,1.55,1.77,1.32,4.2,1.99,6.4,1.55.66.22,2.21.66,2.43,1.55.22.88-.44,1.77-.88,2.43l-.22.22v.22c-.66,2.43-1.1,4.86-1.32,7.29s-.22,4.86-.44,5.96v1.32c.44.66.44,1.32.22,1.99-.22.44-1.77.44-3.53-.22h-.44c-2.21,0-4.2.22-6.18.88-.66.22-1.32.44-1.99.44-1.1,0-1.77-.66-2.21-1.99-.22-3.97-.22-6.4-.44-8.61-.22-.88-.66-3.09-1.77-7.51l-.22-.22c0-.22-.88-1.55-.66-2.65M235.18,202.28c-.22.22-.66.44-1.99.44-.88,0-1.55,0-2.43-.22-4.86-.66-9.49-2.65-13.03-5.96l-1.32-.88c-6.62-4.64-13.47-8.61-20.53-12.36-4.42-2.87-19.65-5.3-20.53-5.3-2.87,0-5.52.44-7.95,1.77-3.53,1.77-3.97,1.1-3.97,1.1-.22-.44,0-1.99.44-3.09,5.3-5.3,14.79-6.18,20.09-6.18,1.55,0,2.87,0,4.42.22,14.13,1.77,34.22,10.6,34.44,10.82,5.08,1.99,9.27,5.74,11.7,10.6.66,1.99.44,2.43.44,2.43-.66,0-1.1-.22-1.77-.22-2.43-1.1-4.42-2.65-5.96-4.86l-.22-.22h-.22c-.88-.44-1.77-.88-2.87-.88-.66,0-1.32.22-1.77.66-.44.66-.66,1.32-.44,1.99v.22c1.55,3.09,8.17,6.62,9.27,7.29,1.1,1.1,2.43,1.77,3.75,1.99.44.44.44.66.44.66M224.58,177.77c-1.55.44-3.09.88-4.64.88-1.32.22-2.43-.44-3.09-1.77-.44-1.32-.22-2.87.88-3.97l.22-.22.22-.22c3.31-2.43,6.18-4.42,9.05-6.62s5.74-4.2,9.05-6.4l.44-.22h.44c.66-.22,1.32-.22,1.99-.22,1.99-.22,3.53,1.32,3.75,3.09v.88l-.44.66c-4.2,6.62-10.38,11.7-17.88,14.13M229,225.03c6.62,0,60.06-.66,60.5-.66,2.43.22,3.09.88,3.31,1.32s-.88,1.55-1.1,1.77l-.22.22h0c-4.64.44-9.49.66-14.13.66l-32.46.22h-17c-.44-.22-.66-.66-.66-1.1,0-1.1,1.32-2.21,1.77-2.43M219.28,368.55c5.3,7.95,9.94,15.24,14.13,21.42,20.76,31.35,20.98,31.35,23.18,31.35h1.77l.88-1.32,33.78-50.78-7.73-.22c-10.6,15.9-20.53,30.91-29.15,43.94-4.64-6.62-15.46-22.96-29.59-44.16l-7.29-.22ZM175.79,289.94c-13.25-20.76-26.72-41.29-38.64-59.84,60.72.66,208.21.66,239.79.66-5.74,8.83-19.21,28.92-35.55,53.65v11.48c24.51-36.87,43.94-66.24,44.16-66.9l2.21-4.64h-88.76c.22-2.21,0-4.64-1.1-5.52-.66-1.1-2.21-1.55-3.53-1.1h-4.42c-2.21,0-5.52,0-9.94-.22-.44-3.31-.22-6.84,1.1-10.16,0,0,5.52.88,15.46-8.83,0,0,.44-2.21,3.75-3.31,1.55,4.86,5.74,8.61,10.82,9.27,0,0,17.88,2.65,15.01-11.04,0,0-9.94,2.65-10.82-1.1,0,0-.44-2.87,5.52-5.96,4.64-.44,9.05-1.1,13.69-2.21,0,0,14.79-2.87,14.79-22.96,0,0-.44-6.4-3.97-5.08,0,0-27.82.88-35.11.44-3.53-.44-6.84,1.32-8.39,4.64,0,0-1.32,6.18-8.39,3.31,0,0-2.65-.44-11.48-5.3,0,0-8.39-4.64-12.81-6.4,0,0,6.18-18.99-12.14-19.65,0,0-14.57.88-11.26,18.99,0,0-14.13,5.08-20.31,11.04,0,0-14.13,11.26-22.3,7.29l-16.34-3.53c-.44-.22-1.32-1.1-1.32-3.31-.22-3.97.22-7.95,1.55-11.7.66-2.65,1.55-5.08,3.09-7.51.22-.88.22-1.99,0-2.87,0,0,.22-.44-2.65-.22-4.2,1.55-8.83.44-11.7-2.87,0,0-1.1-2.21-2.65,0,0,0-4.42,6.18-8.83,4.86,0,0-.66-.22-1.99-.88,0,0-3.31-.22-2.43,1.55.66,2.43,1.55,4.64,2.65,7.07,0,0,2.21,2.43,2.21,15.24,0,0,.88,4.2-.22,5.96,0,0-7.51,5.52-6.62,10.6,0,0,1.99,2.87,6.4,0,5.96-2.21,12.36-2.65,18.55-1.32,7.07,2.65,13.69,5.96,19.87,10.16,0,0,8.83,5.08,14.35,9.05,6.18,3.97,13.03,7.07,20.31,9.05.88.66,1.32,1.99,1.1,3.09,0,0,2.65,7.29-3.09,5.96,0,0-13.69-1.1-14.79,2.43-.22.88-.22,1.77-.22,2.65-35.77-.22-69.11-.22-89.42-.44h-5.96l3.31,5.08c.22.44,22.52,35.11,47.91,74.41l-.44-13.03Z"/>
  <path class="cls-1" d="M256.6,496.83c-132.7,0-240.23-107.53-240.23-240.23S123.9,16.37,256.6,16.37s240.23,107.53,240.23,240.23h0c-.22,132.48-107.53,240.01-240.23,240.23ZM256.6,21.45C126.77,21.45,21.45,126.77,21.45,256.6s105.32,235.15,235.15,235.15,235.15-105.32,235.15-235.15c-.22-129.83-105.32-235.15-235.15-235.15h0Z"/>
  <path class="cls-1" d="M72.67,342.49c3.75-1.99,7.51-4.2,11.7-2.87,3.97,1.55,7.29,4.64,9.05,8.39,1.99,3.53,3.53,7.95,2.65,11.92-1.1,4.86-4.86,7.07-9.05,9.49l-20.31,11.04-4.64-8.61,20.53-11.04c1.77-.88,3.53-1.99,4.86-3.53.88-1.99.88-4.42-.44-6.4-.88-1.77-2.43-3.31-4.42-3.97-2.21.22-4.42.88-6.18,2.21l-20.53,11.04-3.75-6.84,20.53-10.82Z"/>
  <polygon class="cls-1" points="74.22 297.89 76.43 305.18 55.67 326.59 55.67 326.81 80.4 319.53 82.39 326.37 45.52 336.97 42.87 327.7 60.97 308.93 60.97 308.93 39.11 315.11 37.35 308.49 74.22 297.89"/>
  <rect class="cls-1" x="33.82" y="278.68" width="38.42" height="9.05" transform="translate(-30.66 7.5) rotate(-6.28)"/>
  <polygon class="cls-1" points="71.57 245.56 70.91 255.28 32.05 264.77 32.49 255.28 60.31 248.87 33.37 239.6 33.81 232.09 71.57 245.56"/>
  <polygon class="cls-1" points="45.74 210.45 53.46 212.22 57 198.09 64.06 199.85 60.31 213.99 68.7 216.19 73.12 198.31 80.4 200.08 73.56 226.79 36.46 217.3 43.31 190.58 50.37 192.57 45.74 210.45"/>
  <path class="cls-1" d="M87.25,184.18l-3.97,7.95-34.44-17,7.07-14.57c1.32-3.09,3.31-5.96,6.18-7.95,3.31-1.77,7.29-1.99,10.82-.22,3.97,1.77,6.4,5.96,5.96,10.38l18.33,1.1-4.42,8.83-16.34-1.32-2.87,5.96,13.69,6.84ZM67.82,174.46l2.21-4.42c1.1-1.55,1.55-3.31,1.77-5.3-.22-1.77-1.32-3.09-2.87-3.97-1.32-.66-3.09-.44-4.42.22-1.55,1.32-2.65,3.09-3.09,4.86l-1.99,4.2,8.39,4.42Z"/>
  <path class="cls-1" d="M92.33,124.78c-2.87-1.1-5.96-.22-7.73,2.43-1.55,1.99-2.87,4.64-.44,6.4s4.86-.44,6.4-1.99c2.65-2.43,5.52-4.42,8.83-5.96,3.53-1.32,7.29-.66,10.16,1.55,2.87,2.43,4.64,5.96,4.64,9.72-.22,3.97-1.77,7.73-4.42,10.6-4.42,5.74-11.04,8.83-17.88,5.74l3.53-7.73c3.97,1.55,6.84.22,9.27-2.87,1.55-1.99,2.87-5.3.44-7.29-2.43-1.99-5.74,1.1-7.51,2.65-5.3,4.42-11.04,8.61-17.66,3.31-2.87-1.99-4.42-5.3-4.64-8.83,0-3.53,1.1-6.84,3.53-9.49,4.2-5.3,9.27-8.17,16.12-5.96l-2.65,7.73Z"/>
  <rect class="cls-1" x="113.09" y="91.02" width="9.05" height="38.42" transform="translate(-43.57 108.84) rotate(-42.65)"/>
  <polygon class="cls-1" points="148.19 72.9 140.24 78.19 157.24 103.81 149.73 108.66 132.73 83.05 124.56 88.57 120.37 82.17 143.99 66.49 148.19 72.9"/>
  <polygon class="cls-1" points="182.85 72.67 189.26 87.69 180.87 91 174.68 76.21 154.81 60.31 164.53 56.34 176.89 66.93 178 50.59 185.5 47.5 182.85 72.67"/>
  <path class="cls-1" d="M232.31,70.69c-2.87-3.97-4.64-8.61-4.86-13.47-.66-10.16,3.97-20.09,15.24-20.76,4.86-.44,9.49,1.32,12.36,5.08,2.87,3.97,4.64,8.61,4.86,13.69.22,4.64-.66,9.27-2.87,13.47-2.65,4.42-7.29,7.07-12.36,7.29-4.64.66-9.49-1.32-12.36-5.3M237.61,48.61c-.66,2.65-.88,5.3-.66,8.17.22,4.86,1.55,12.36,7.73,12.14,2.65,0,5.08-1.99,5.52-4.86.66-2.65.88-5.3.66-8.17,0-2.87-.66-5.96-1.99-8.61-.88-2.21-3.31-3.75-5.74-3.31-2.87,0-5.08,1.99-5.52,4.64"/>
  <polygon class="cls-1" points="283.76 45.96 282.65 54.57 297.01 56.56 296.12 63.84 281.55 61.63 279.56 76.65 270.51 75.32 275.81 37.35 302.97 41.1 301.86 48.39 283.76 45.96"/>
  <polygon class="cls-1" points="352.65 101.6 345.8 98.07 344.48 68.48 344.26 68.26 332.55 91.44 326.37 88.13 343.59 53.91 352.43 58.32 353.53 84.16 353.75 84.38 363.91 64.06 370.09 67.38 352.65 101.6"/>
  <polygon class="cls-1" points="387.98 88.79 383.12 94.98 394.38 104.03 389.96 109.77 378.7 100.72 373.4 107.34 387.75 118.82 383.12 124.56 361.7 107.56 385.55 77.53 406.96 94.53 402.33 100.5 387.98 88.79"/>
  <polygon class="cls-1" points="411.38 157.9 405.86 150.84 421.98 130.3 421.98 130.3 398.13 141.12 392.83 134.28 416.9 102.7 422.42 109.99 405.86 130.52 405.86 130.74 430.15 119.48 435.23 126.11 418.89 147.08 418.89 147.3 420.43 146.42 442.95 135.82 447.37 141.78 411.38 157.9"/>
  <polygon class="cls-1" points="437.88 220.83 435.23 212.22 450.46 207.58 446.93 196.32 431.91 200.74 429.26 192.35 465.92 181.09 468.57 189.7 454.22 194.11 457.75 205.37 472.1 201.18 474.53 209.57 437.88 220.83"/>
  <path class="cls-1" d="M442.29,262.34l-.88-9.72,7.73-2.87-1.1-12.36-8.17-1.77-.66-7.95,39.3,9.27.88,10.38-37.09,15.01ZM455.98,247.11l13.03-5.08-13.69-3.09.66,8.17Z"/>
  <polygon class="cls-1" points="440.08 284.42 440.97 274.71 480.49 267.2 479.39 276.69 451.34 281.55 477.84 292.37 476.96 299.88 440.08 284.42"/>
  <polygon class="cls-1" points="463.93 320.85 456.42 318.64 452.23 332.55 445.16 330.35 449.58 316.44 441.41 314.01 435.89 331.67 428.82 329.46 436.99 303.19 473.65 314.45 465.48 340.72 458.41 338.52 463.93 320.85"/>
  <polygon class="cls-1" points="411.38 362.8 414.91 356.18 444.72 355.74 444.94 355.52 422.2 343.15 425.51 336.97 459.29 355.74 454.44 364.13 428.6 364.35 428.6 364.57 448.25 375.39 444.94 381.57 411.38 362.8"/>
  <path class="cls-1" d="M256.82,381.35h-.44l-1.32-.22-.44-.88c-3.09-2.65-5.74-5.52-8.61-8.61-8.61,0-65.58.44-70.66.44h-2.43v-116.58c-4.42-3.09-8.61-6.4-12.36-10.38l-.88-.66v-2.21l.88-.88c.88-.66,1.77-1.77,15.01-1.1,1.32,0,155.22-1.1,179.95,0l6.62.22-5.08,4.2c-4.64,3.75-10.16,8.39-11.7,9.94v117.02h-2.43c-.44,0-52.99,1.1-76.18,1.1-6.84,7.73-8.83,8.61-9.94,8.61ZM248.21,366.78l.66.88c3.97,4.42,6.62,6.84,7.95,8.17,1.55-1.32,4.42-4.42,6.62-6.84l.66-.88h1.1c19.65,0,63.81-.88,74.85-1.1v-112.83c0-1.1,0-1.77,8.39-8.61-37.98-.88-171.56.22-173.11.22-3.31-.22-5.74-.22-7.73-.22,6.18,5.52,8.17,6.4,8.39,6.4l1.99.44-.22,1.99v112.83c13.47,0,69.11-.44,69.11-.44h1.32Z"/>
  <path class="cls-1" d="M130.3,440.97c-1.99,0-4.2-.66-5.74-1.99-6.62-4.42-5.3-12.59-1.32-18.55,2.43-4.2,6.62-6.84,11.48-7.07,2.21,0,4.42.66,6.4,1.99,4.42,3.09,5.52,7.95,3.31,13.25l-.22.88-4.42-1.99.22-.66c1.32-3.97.88-6.4-1.55-7.95-.88-.66-1.99-1.1-3.09-1.1-3.75,0-7.07,4.2-7.95,5.74-1.32,1.77-2.21,3.75-2.65,5.74-.44,2.21.44,4.64,2.21,5.96,2.43,1.77,5.3,1.32,8.39-1.55l.66-.44,3.09,3.31-.66.44c-2.21,2.43-5.08,3.75-8.17,3.97"/>
  <path class="cls-1" d="M155.69,455.76c-1.55,0-3.31-.44-4.64-1.1-3.31-1.55-5.52-4.64-5.96-8.17-.44-3.31.22-6.84,1.99-9.94,2.21-4.42,6.4-9.05,12.14-9.05,1.77,0,3.31.44,4.86,1.32,7.07,3.53,7.07,11.7,4.2,17.88-2.43,3.97-7.07,9.05-12.59,9.05M159.45,431.91c-4.2,0-7.29,5.3-7.95,6.84-1.1,1.99-1.55,4.42-1.55,6.62s1.1,4.2,3.09,5.3c.66.44,1.55.66,2.43.66,3.31,0,6.4-3.75,7.95-6.84,1.1-1.99,1.77-4.42,1.77-6.84,0-3.09-2.65-5.52-5.74-5.74"/>
  <polygon class="cls-1" points="190.36 469.89 186.17 468.35 181.31 444.72 174.46 464.37 170.27 463.05 179.32 436.55 184.62 438.32 189.04 460.18 195.22 441.85 199.41 443.18 190.36 469.89"/>
  <polygon class="cls-1" points="221.49 476.52 217.08 475.63 208.91 452.89 204.93 473.42 200.74 472.54 206.04 444.94 211.34 446.05 218.84 467.24 222.38 448.03 226.79 448.92 221.49 476.52"/>
  <polygon class="cls-1" points="250.86 478.72 232.09 477.62 233.64 449.8 251.96 450.9 251.74 455.32 238.49 454.44 238.05 461.28 248.65 461.94 248.43 466.14 237.61 465.48 237.17 473.65 251.08 474.31 250.86 478.72"/>
  <path class="cls-1" d="M268.52,478.5c-7.51,0-11.26-7.07-11.7-13.91-.44-6.62,2.21-14.35,11.04-14.79,5.3-.22,9.27,2.65,10.82,8.39l.22.88-4.64,1.1-.22-.66c-1.32-3.97-3.31-5.52-6.18-5.3-5.96.44-5.96,8.17-5.74,10.38,0,2.21.66,4.2,1.55,6.18.88,2.21,3.09,3.53,5.3,3.53,3.09-.22,4.86-2.21,5.52-6.18l.22-.88,4.64.66-.22.88c-1.1,6.18-4.64,9.49-9.94,9.94l-.66-.22"/>
  <polygon class="cls-1" points="293.69 475.41 289.28 452.23 281.99 453.55 281.11 449.14 300.76 445.38 301.64 449.8 294.14 451.12 298.33 474.31 293.69 475.41"/>
  <rect class="cls-1" x="308.49" y="443.03" width="4.86" height="28.04" transform="translate(-108.88 97.42) rotate(-15.19)"/>
  <path class="cls-1" d="M332.11,464.81c-6.18,0-10.38-5.52-12.14-10.38-1.32-3.09-1.55-6.62-.88-10.16.88-3.53,3.53-6.18,6.84-7.29,4.86-1.77,9.72,0,12.81,4.86l.44.66-3.97,2.43-.44-.66c-2.43-3.31-4.64-4.2-7.29-3.31-5.74,2.21-3.09,10.16-2.43,11.7.66,1.99,1.77,3.97,3.31,5.52,1.1,1.32,2.65,1.99,4.42,1.99.66,0,1.1,0,1.77-.22,2.87-1.1,3.97-3.53,3.53-7.73v-.88l4.64-.66v.88c.66,6.18-1.55,10.6-6.62,12.36-1.1.66-2.43.88-3.97.88"/>
  <path class="cls-1" d="M357.95,453.11c-.88,0-1.77-.22-2.65-.44-2.65-1.1-4.86-3.31-5.74-5.96l-8.39-15.46,4.42-2.43,8.39,15.46c.66,1.55,1.55,2.87,2.87,3.75,1.55.44,3.31.22,4.64-.66,1.32-.66,2.43-1.77,2.87-3.31.22-1.77-.22-3.31-1.32-4.64l-8.39-15.46,3.97-1.99,8.39,15.46c1.55,2.21,2.21,5.08,1.77,7.73-.66,2.87-2.65,5.3-5.3,6.4-1.55,1.1-3.53,1.55-5.52,1.55"/>
  <polygon class="cls-1" points="384.88 438.1 371.19 418.89 365.01 423.3 362.58 419.55 378.92 408.07 381.35 411.6 375.17 416.02 388.86 435.23 384.88 438.1"/>
  <path class="cls-1" d="M191.02,300.54c-.88-9.05-1.1-18.33-.44-27.38v-3.09c0-1.1.22-2.65-.22-3.31-.22-.44-.66-.44-1.32-.44-1.77,0-5.74,3.09-6.84,4.86h0c0,1.77-.22,3.31-.66,5.08-.44,1.77-.44,3.31-.66,5.08,0,.88,0,1.77-.22,2.87-.66,2.87-.44,5.96.88,8.83h0c.88.44,2.21.22,2.87-.44,1.1-1.1.66-3.53.44-5.52-.22-1.32-.22-2.43,0-2.87s.22-.44.66-.22l.22.22c.22,0,.44.22.44.44.44.44.22,1.99-.22,3.53-.44,2.65-1.1,6.18,1.55,7.07.22,1.55.22,3.53.22,5.74,0,2.87.22,5.74.88,8.39.22,1.32.22,2.43,0,3.75-.44,3.75-.22,7.73.66,11.26q.22.22.44.22c.22,0,.44-.22.44-.22,1.99-5.08,1.55-13.91.88-23.85"/>
  <path class="cls-1" d="M321.74,259.03h0c-7.51-1.1-129.83-.22-131.15-.22h-.22l-5.52-7.07,1.1-.88.22.44v-.22c4.86-.44,141.53-.66,147.27-.66h1.55l-.88,1.1c-1.1,1.1-11.04,7.51-12.36,7.51"/>
  <path class="cls-1" d="M258.81,357.28l-1.77-.44c-13.69-2.43-24.73-3.53-26.5-3.75-31.57,5.3-36.21-1.32-36.87-2.43h0c-.44-1.99-.66-12.14-.22-83.24v-1.77l1.99.44c11.26,1.99,32.9-1.55,33.12-1.55,12.36-3.31,23.63,2.21,27.38,4.42h.88c1.77.22,3.09.44,2.21,86.77l-.22,1.55ZM230.32,350h0c.22,0,11.26,1.1,25.17,3.53.22-30.03.44-73.31-.44-81.47-.66-.44-12.81-7.95-26.05-4.64-.88.22-20.31,3.53-32.46,1.99-.22,30.91-.44,75.51,0,79.93.88.66,6.4,5.08,33.78.66h0Z"/>
  <path class="cls-1" d="M265.43,358.61h-.88c-1.99,0-2.65-2.43-2.87-90.31v-.66l.44-.44c4.86-4.64,19.87-5.52,21.64-5.74,7.95-.44,19.87,3.09,20.31,3.31,6.4.66,13.03.66,19.43,0l.44-.44,1.1.44c1.32.44,3.09,1.32,3.31,83.46v.88l-.88.44c-14.57,9.05-25.61,4.2-27.38,3.31-6.4-1.32-13.25-.88-19.43,1.1-8.83,3.97-13.25,4.64-15.24,4.64ZM264.77,268.96c0,31.8.44,78.6,1.32,86.33,4.64-.66,9.27-1.99,13.47-4.2,7.07-2.43,14.35-2.87,21.64-1.32l.44.22c.44.22,10.16,5.3,23.63-2.65-.22-28.04-.88-71.76-1.99-79.27-6.62.66-13.25.44-19.65-.22-.44,0-12.14-3.53-19.65-3.09-4.2,0-15.24,1.32-19.21,4.2h0Z"/>
  <path class="cls-1" d="M251.3,345.14c-.22,0-.44,0-.66-.22-7.07-3.31-15.24-4.2-25.39-3.09-1.77.22-3.31.44-4.86.88-5.74,1.1-11.04,2.21-17.44-.44-.88-.44-1.1-1.32-.88-2.21.44-.88,1.32-1.1,2.21-.88,5.3,2.21,9.94,1.32,15.46.22,1.77-.22,3.31-.66,5.08-.88,10.82-1.32,19.65-.22,27.16,3.31.88.44,1.1,1.32.88,2.21h0c-.44.66-.88,1.1-1.55,1.1Z"/>
  <path class="cls-1" d="M211.12,331.01c-2.87,0-5.74-.44-8.61-1.32-.88-.22-1.32-1.1-1.1-1.99h0c.22-.88,1.1-1.32,1.99-1.1h0c4.42,1.55,9.27,1.55,13.91.22.88-.22,1.77.22,1.99.88.22.88,0,1.77-.88,1.99h0c-2.21.88-4.86,1.32-7.29,1.32Z"/>
  <path class="cls-1" d="M256.6,332.78c-.22,0-.66,0-.88-.22-8.17-5.52-18.33-7.29-27.82-4.64-.88.22-1.77-.22-1.99-1.1h0c-.22-.88.22-1.77,1.1-1.99,10.38-2.87,21.64-1.1,30.47,5.08.66.44.88,1.55.44,2.21-.22.44-.66.66-1.32.66Z"/>
  <path class="cls-1" d="M255.05,318.87c-.22,0-.66,0-.88-.22-8.39-5.3-14.35-5.52-24.07-4.64-2.43.44-4.86.88-7.07,1.55-6.4,1.77-13.03,3.53-19.65-.66-.66-.44-.88-1.55-.44-2.21.44-.66,1.32-.88,2.21-.44,5.52,3.53,11.04,1.99,17,.44,2.43-.66,5.08-1.32,7.51-1.77,10.38-1.1,17.22-.66,26.28,5.08.66.44.88,1.55.44,2.21-.22.44-.88.66-1.32.66Z"/>
  <path class="cls-1" d="M252.85,279.12c-.22,0-.44,0-.66-.22-9.27-5.08-20.53-5.96-30.47-1.99-.88.22-1.77-.22-1.99-.88h0c-.22-.88.22-1.77.88-1.99,10.82-4.2,22.74-3.31,32.9,2.21.88.44,1.1,1.32.66,2.21-.22.44-.66.66-1.32.66h0Z"/>
  <path class="cls-1" d="M208.47,277.58c-2.65,0-5.3-.66-7.73-1.77-.88-.44-1.1-1.32-.66-2.21h0c.44-.88,1.32-1.1,2.21-.88h0c2.87,1.55,6.4,1.77,9.49.88.88-.22,1.77.22,1.99,1.1s-.22,1.77-1.1,1.99c-1.32.66-2.87.88-4.2.88Z"/>
  <path class="cls-1" d="M264.11,277.13c-.44,0-1.1-.22-1.32-.66-.44-.66-.44-1.77.44-2.21,12.59-9.05,25.61-5.96,38.2-3.09,5.08,1.32,10.16,2.21,15.46,2.65.88,0,1.55.88,1.55,1.77h0c0,.88-.66,1.55-1.55,1.55h-.22c-5.52-.44-10.82-1.32-15.9-2.87-11.92-2.87-24.29-5.74-35.55,2.43-.44.22-.66.44-1.1.44Z"/>
  <path class="cls-1" d="M304.73,316.88c-1.32,0-2.87,0-4.86-.22-2.87-.44-5.52-1.1-7.95-2.43-5.96-2.65-12.81-5.52-24.07-1.32-.88.44-1.77,0-2.21-.66-.44-.88,0-1.77.66-2.21,0,0,.22,0,.22-.22,12.36-4.64,20.53-1.1,26.28,1.55,2.21,1.1,4.64,1.77,7.07,2.21,7.29.44,8.17,0,12.59-1.32l1.32-.44c.88-.22,1.77.22,1.99,1.1.22.66-.22,1.55-.88,1.77l-1.32.44c-2.65,1.32-5.74,1.77-8.83,1.77Z"/>
  <path class="cls-1" d="M307.16,333.88c-4.86-.22-9.49-1.32-14.13-3.09-2.43-.88-5.08-1.55-7.51-2.21-3.97-1.1-12.59-2.21-17,1.1-.66.44-1.77.22-2.21-.44s-.22-1.55.22-2.21c6.62-4.86,18.33-1.99,19.65-1.77,2.65.66,5.3,1.32,7.95,2.21,8.17,2.87,15.9,5.52,23.4-.88.66-.44,1.55-.44,2.21.22.44.66.44,1.55-.22,2.21-3.31,3.09-7.73,4.86-12.36,4.86Z"/>
  <path class="cls-1" d="M268.74,348.23c-.44,0-.66,0-.88-.22-.66-.44-.88-1.55-.44-2.21,2.65-3.09,6.4-5.3,10.38-6.18,4.86-.88,9.72-.88,14.57-.22.88,0,1.55.88,1.32,1.77,0,.88-.88,1.55-1.77,1.32h-.22c-4.42-.66-8.83-.66-13.25.22-3.31.66-6.18,2.43-8.39,4.86-.44.44-.88.88-1.32.66Z"/>
  <path class="cls-1" d="M311.36,345.14c-2.87,0-5.96-.44-8.83-1.1-1.32-.22-2.87-.44-4.42-.66-.88-.22-1.55-.88-1.32-1.77h0c0-.88.88-1.55,1.77-1.32h0c1.55.22,3.09.44,4.42.88,3.53.88,7.29,1.1,11.04.88.88,0,1.77.44,1.77,1.32s-.44,1.77-1.32,1.77c-.88-.22-1.99,0-3.09,0Z"/>
  <path class="cls-1" d="M335.87,363.47c2.65-.44-1.32-4.2,1.32-5.08,0,0-5.74-1.99-4.2-6.84-4.86-1.55-1.99,5.96-5.3,5.96-1.55,0-3.53-.44-3.53-1.99-7.95,3.09-13.47,2.65-21.42.88-4.2,0-11.04-.88-15.46.66,0,3.09,2.21,3.31,3.75,5.08,11.7.22,32.9,3.09,44.82,1.32"/>
  <path class="cls-1" d="M195,365.9c-2.87,0-5.74-.22-8.61-.44-.44,0-1.1-.44-1.32-.88-.22-.66-.22-1.55,0-2.21.44-1.32.22-1.32,0-1.55l-2.21-.66,2.21-.88c.22,0,4.42-1.55,3.31-5.08l-.22-.88.66-.22c.44-.22.88-.22,1.32-.22,2.21,0,2.43,2.21,2.65,3.53s.44,1.99.88,1.99,2.43,0,2.43-1.1v-1.1l1.1.44c3.09,1.32,6.4,1.99,9.72,1.99,3.09,0,6.18-.44,9.05-1.1h3.31c1.1,0,2.87-.22,4.42-.22,2.21,0,4.42.22,6.62.88l.44.22v.66c0,1.77-.88,3.31-2.43,4.2-.44.22-.88.66-1.1.88l-.22.22h-.22c-3.75,0-8.83.44-13.91.66-6.18.66-12.36,1.1-17.88.88"/>
  <path class="cls-1" d="M337.41,279.78c0-2.65-1.1-5.52-1.32-8.17-1.55-1.77-3.31-3.09-5.52-3.53-2.65,0-1.32,3.09-1.1,5.3,1.55,11.04-2.21,40.19,1.77,41.51,1.32-.44.22-10.6.66-12.14.88-2.87,0-8.17.22-11.48,3.97-1.32-1.1-8.83,1.55-8.83,2.65-1.32-1.99,8.61,3.31,7.07,1.77-3.09.44-7.07.44-9.72"/>
  <path class="cls-1" d="M100.27,404.09c-4.2,0-7.29-3.31-7.29-7.51,0-1.99.66-3.75,1.99-5.08,2.87-2.87,7.51-2.87,10.38,0,2.87,2.87,2.87,7.51,0,10.38-1.32,1.32-3.09,2.21-5.08,2.21"/>
  <path class="cls-1" d="M410.94,407.18c-3.97,0-7.29-3.31-7.29-7.29s3.31-7.29,7.29-7.29,7.29,3.31,7.29,7.29-3.09,7.29-7.29,7.29"/>
  <path class="cls-1" d="M255.72,435.23c-95.61,0-173.11-77.5-173.11-173.11S160.11,89.01,255.72,89.01s173.11,77.5,173.11,173.11-77.5,173.11-173.11,173.11ZM255.72,92.99c-93.4,0-169.35,75.73-169.35,169.35s75.73,169.35,169.35,169.35,169.35-75.73,169.35-169.35h0c0-93.4-75.73-169.13-169.35-169.35h0Z"/>
  <path class="cls-1" d="M221.71,299.88c0,3.97.22,3.97,2.65,4.2l1.1.22c.22.22.22,1.1,0,1.1-1.99,0-3.75-.22-5.52-.22s-3.97,0-5.74.22c-.44-.22-.44-.88,0-1.1l1.1-.22c2.43-.22,2.65-.44,2.65-4.2v-12.81c0-2.65,0-3.53-1.99-3.75l-1.99-.22c-.22-.22-.22-.66,0-.88,2.65-.44,5.3-1.32,7.73-2.43.22,0,.44.22.44.44,0,.88-.22,3.31-.22,4.86l-.22,14.79Z"/>
  <path class="cls-1" d="M240.92,279.56c2.65,0,5.08,1.1,6.62,3.09,1.55,2.21,2.43,4.86,2.21,7.73,0,5.08-2.43,9.72-6.4,12.81-2.87,2.21-6.18,3.75-9.72,4.42-.44-.22-.44-.88-.22-1.1h0c1.99-.66,3.97-1.77,5.74-2.87,3.09-2.43,5.74-6.4,5.96-13.91,0-4.64-1.1-8.61-4.2-8.61-1.77,0-3.53,1.77-3.53,5.08s1.55,6.62,3.97,6.62c.44,0,.88,0,1.32-.22.22.22.44.66.22.88-1.1.66-2.43,1.1-3.75,1.1-3.53,0-6.4-2.87-6.4-6.4v-.66c.22-4.42,3.75-7.95,8.17-7.95q.22,0,0,0"/>
  <path class="cls-1" d="M281.55,301.86c2.87,0,3.53-.22,4.86-2.43.44-.22.66,0,1.1.22-.22,1.99-.88,3.97-1.99,5.96h-11.7c-2.21,0-3.53,0-4.42.22-.22-.22-.44-.44-.22-.66,1.99-1.77,4.2-3.75,5.96-5.74,3.09-3.09,5.74-7.07,5.74-11.26.44-2.65-1.55-5.08-4.2-5.52h-.44c-2.21.22-4.2,1.55-4.86,3.53-.44.22-.88,0-1.1-.44h0c1.32-3.31,4.64-5.52,8.39-5.52,3.75-.22,6.84,2.65,7.07,6.18v.44c0,2.65-1.1,5.08-4.64,9.05l-3.31,3.53c-1.77,1.77-1.99,2.43-1.99,2.65s.22.44,1.32.44l4.42-.66Z"/>
  <path class="cls-1" d="M309.15,292.81c0,6.4-2.43,13.25-8.61,13.25s-8.61-6.84-8.61-13.25,2.43-13.03,8.61-13.03,8.61,6.84,8.61,13.03M296.56,292.81c0,3.75.44,11.48,3.97,11.48s3.97-7.73,3.97-11.48-.44-11.48-3.97-11.48-3.97,7.73-3.97,11.48"/>
</svg>