<?xml version="1.0" encoding="UTF-8"?>
<svg id="Layer_1" data-name="Layer 1" xmlns="http://www.w3.org/2000/svg" viewBox="0 0 200 200">
  <defs>
    <style>
      .cls-1 {
        fill: #25526b;
      }

      .cls-1, .cls-2, .cls-3, .cls-4, .cls-5, .cls-6, .cls-7, .cls-8, .cls-9, .cls-10, .cls-11, .cls-12, .cls-13, .cls-14, .cls-15, .cls-16, .cls-17, .cls-18, .cls-19, .cls-20, .cls-21 {
        stroke-width: 0px;
      }

      .cls-2 {
        fill: #fbfcfc;
      }

      .cls-3 {
        fill: #164a69;
      }

      .cls-4 {
        fill: #35b198;
      }

      .cls-5 {
        fill: #eefafb;
      }

      .cls-6 {
        fill: #35b298;
      }

      .cls-7 {
        fill: #0c4564;
      }

      .cls-8 {
        fill: #3aae98;
      }

      .cls-9 {
        fill: #eef9fe;
      }

      .cls-10 {
        fill: #366582;
      }

      .cls-11 {
        fill: #154c6d;
      }

      .cls-12 {
        fill: #154868;
      }

      .cls-13 {
        fill: #114567;
      }

      .cls-14 {
        fill: #fefefe;
      }

      .cls-15 {
        fill: #1f5171;
      }

      .cls-16 {
        fill: #3bb49d;
      }

      .cls-17 {
        fill: #154562;
      }

      .cls-18 {
        fill: #f7fcfd;
      }

      .cls-19 {
        fill: #144867;
      }

      .cls-20 {
        fill: #24536d;
      }

      .cls-21 {
        fill: #47ac98;
      }
    </style>
  </defs>
  <path class="cls-14" d="M.1,199.9C.1,134.63.13,69.36,0,4.09,0,.67.67,0,4.09,0c63.94.13,127.88.13,191.81,0,3.42,0,4.1.67,4.09,4.09-.13,63.94-.13,127.88,0,191.81,0,3.42-.67,4.1-4.09,4.09-65.27-.13-130.54-.1-195.81-.1Z"/>
  <path class="cls-18" d="M84.2,103.99c6.04.67,6.69-4.27,6.48-7.8-.22-3.73.57-6.97,1.42-10.38,2.06.24,1.77,2.11,2.32,3.38.33.76.57,1.65,1.65,1.5.72-.1,1.14-.7,1.27-1.37,1.09-5.53,2.1-11.08,2.34-16.73.05-1.12-.84-1.74-1.61-2.39-.09-1.29-2.75-2.13-.76-3.76,1.71-1.4,3.71-1.17,4.83.52,1.78,2.65,3.32,1.96,5.29.42,1.64-1.28,3.68-1.68,5.69-1.32,9.17,1.61,18.26-1.44,27.41-.33,5.1.62,10.08.92,15.31-.03,1.91-.35,4.48,2.04,7.77,1.42,2.28-.43,3.84-2.52,6.17-2.05,1.33.27,2.98-1.92,3.9.27.67,1.61.41,3.24-1.78,3.93-.68.21-1.12,1.15-1.67,1.76-2.44.31-2.8,2.51-3.74,4.16-1.48,2.57-2.75,2.51-3.96-.2-.87-1.95-1.67-3.98-4.19-4.37-2.76,1.24-5.77.37-8.86,1.05,1.13,2.46,2.87,4.9.28,7.36-3.6,2.25-4.76,5.3-3.2,9.35.55,1.42.96,3.7-.17,4.22-6.35,2.93-2.69,8.39-2.99,12.49-.21,2.91-.64,4.25-3.25,4.92-1.79-1.28-1.4-3.24-1.52-5.01-.14-2.03-.18-4.04-2.26-5.2-1.14-.93-.53-2.04.1-3.54-2.54,2.65.02,4.1.49,5.91.22.81.33,1.64.25,2.47-.15,1.67-.27,3.57-2.37,3.84-2.53.32-2.77-1.78-3.21-3.57-.18-.73.15-1.7-.86-2.15-1.38,6.33,1.07,12.94-1.57,19.12-1.26-.3-1.68-2.05-3.21-1.87-1.2-1.02-.44-2.53-1.07-4.22-1.36,1.11-2,3.53-4.17,2.65-2.14-.86-1.95-2.89-2.04-4.67-.13-2.65-.18-5.31.02-7.96.37-4.71,1.64-5.29,5.96-2.8.24-2.36-2.85-2.68-2.92-4.82.82-1.16,1.92-.97,2.96-.74-1.95-1.63-4.1-3.3-2.95-6.49,3.27-.56,3.07-3.04,2.73-5.33-.46-3.1-.86-6.1-.2-9.29.57-2.77-.72-4.76-4.04-4.88-3.15-.11-4.04,1.59-3.97,4.33.11,4.58-.28,9.19.29,14.06,1.51-1.24.9-2.64,1.15-3.81.35-1.64.53-3.59,2.72-3.5,2.57.11,2.57,2.06,2.23,4.01-1.15,2.02-2.25,4.13-1.22,6.46,1.05,2.39-2.62,3.53-1.32,5.86-1.93,2.75-3.12,5.7-2.93,9.16.08,1.44,0,2.99-1.41,3.98-2.5-.93-5,.54-7.5,0-.81-1.32,2.21-2.48-.44-4.44-2.58-1.91-1.02-5.11,2.69-6.89-4.36-1.85-5.04,1.96-6.65,4.33-3.05-.41-3.86.98-4.03,3.96-.25,4.29,1.61,8.83-1.21,12.87-1.92-7.01-1.46-13.98.16-21.24-1.95-.16-3.68-.97-2.98,3.01,1.06,6.02.91,12.22.15,18.34-.38,2.23-1.98,3.19-3.89,2.65-1.84-.52-1.21-2.56-1.04-3.88.28-2.25.71-4.56,1.58-6.64,2.89-6.9,2.24-8.06-5.01-8.07-1.15,0-2.3,0-3.45,0-.69-.67-.69-1.34,0-2.01Z"/>
  <path class="cls-7" d="M56.51,113.89c-1.5,0-3,.05-4.49-.01-2.41-.11-4.72.15-3.53-3.88.89-2.98-1.57-5.55-3.22-7.99-2.5-3.71-5.58-7.02-7.45-11.17-3.87-8.64-1.1-18.19,7.1-24.17,7.47-5.44,18.37-4.84,25.35,1.42,7.3,6.54,9.21,16.38,4.5,24.34-1.77,2.99-4.18,5.59-6.05,8.53-1.99,3.11-4.97,5.89-3.56,10.31.66,2.06-1.06,2.52-2.66,2.59-1.99.08-3.99.02-5.99.02,0,0,0,.01,0,.02Z"/>
  <path class="cls-16" d="M129.22,121.86c-.11-6.8-.24-13.61-.33-20.41-.02-1.17-.01-2.46,1.62-2.57,1.89-.13,1.83,1.27,2.19,2.61.57,2.13-1.63,6.28,1.73,6.08,3.61-.21,1.04-4.26,1.48-6.57-.56-.62-.45-1.2.12-1.75,2.93-1.13,4.19-.22,4.01,3-.15,2.57.06,5.17.12,7.75-.05,3.16-.11,6.32-.16,9.48-.02,1.26-.22,2.32-1.87,2.3-1.56-.02-1.98-.93-1.99-2.25-.01-1.33.11-2.68-.04-3.99-.18-1.47.94-3.86-1.54-4.04-2.63-.19-1.72,2.26-1.9,3.73-.18,1.48-.26,2.99-.29,4.48-.04,2.25-1.63,2.12-3.15,2.15Z"/>
  <path class="cls-4" d="M115.83,111.99c.05-2.12.24-4.25.13-6.36-.18-3.47,1.02-6.03,4.27-7.47.5-.61,1.01-.6,1.54-.04,2.39.88,4.64,1.92,4.93,4.89.13,1.29.47,2.83-1.35,3.21-1.39.29-2.15-.52-2.25-1.93-.09-1.24-.36-2.42-1.98-2.13-1.3.22-1.23,1.4-1.24,2.35-.03,3.81-.03,7.61.02,11.42.01.98.08,2.1,1.46,2.14.92.02,1.5-.53,1.69-1.46.33-1.59-.33-4.43,2.65-3.34,2.15.79.99,3.1.73,4.8-.1.65-.28,1.28-.43,1.93-2.18,1.74-4.54,2.79-7.24,1.31-2.72-1.49-2.95-4.11-2.8-6.86.04-.81-.08-1.64-.13-2.45Z"/>
  <path class="cls-6" d="M103.92,105c.44-6.46,1.19-7.04,7.75-6.26,1.24.15,2.48.15,2.27,1.79-.21,1.59-.8,2.96-2.93,2-1.21-.54-2.77-1.24-2.89.94-.08,1.46-1.06,3.37,1,4.39,1.25.62,3.9-.87,3.59,1.99-.27,2.56-3.4.39-4.38,2.15-.6,3.37-1.43,6.73,4.1,6.3,1.93-.15,2.14,2.11,1.21,2.78-2.24,1.62-5.08.71-7.66.68-2.24-.03-1.79-1.97-1.83-3.37-.11-4.46-.16-8.92-.23-13.38Z"/>
  <path class="cls-19" d="M98.08,70.21c2.14-.63,3.94-1.19,3.26,2.41-1,5.32-1.61,10.71-2.38,16.07-.28,1.93-.15,4.02-3.13,4.01-3.09,0-2.65-2.2-2.95-4.08-.15-.95-.51-1.87-.78-2.8-.51-4.1-1.1-8.2-1.49-12.32-.13-1.32-1.9-3.47,1.22-3.72,2.69-.21,2.05,1.97,2.29,3.48.53,3.33,1.04,6.66,2.55,9.95.47-4.33.94-8.66,1.41-13Z"/>
  <path class="cls-10" d="M84.2,103.99c0,.67,0,1.34,0,2.01v21.85c-.55-.01-1.1-.02-1.65-.03V63.24c.55,0,1.1-.01,1.65-.02v40.78Z"/>
  <path class="cls-11" d="M149.77,79.02c-.51-2.22,2.25-5.81-2.67-6.22-.96-.08-1.03-1.14-.83-1.98.24-1,1.13-1.09,1.93-1.1,3.59-.02,7.19-.22,10.75.55.2.19.26.38.19.56-.08.18-.15.27-.22.27-5.7,1.48-5.36,5.91-5.15,10.36.13,2.81,0,5.63.02,8.44,0,1.42-.13,2.67-2,2.74-2.12.08-1.81-1.44-1.84-2.71-.07-3.64-.11-7.28-.16-10.91Z"/>
  <path class="cls-19" d="M158.91,71.1c.03-.27.04-.55.03-.82,6.01-1.54,2.95,4.61,5.55,6.16,1.54-1.1,1.21-3.21,1.91-4.86,1.01-2.38,2.22-2.67,3.83-.55-2.15,6.22-4.87,12.3-4.16,19.15.12,1.13.08,2.42-1.62,2.47-1.62.05-2.01-1.09-1.84-2.3.98-6.86-2.39-12.85-3.71-19.25Z"/>
  <path class="cls-8" d="M96.02,121.93c-1.84-5.17-.47-10.51-.89-15.76-.11-1.37.77-3.21-1.05-3.95-1.25-.51-2.87-.48-2.14-2.42.62-1.64,2.25-.96,3.48-1.04,1.32-.09,2.66-.04,3.98,0,1.25.05,2.88-.43,3.17,1.48.25,1.68-1.15,1.62-2.28,1.89-1.91.45-1.23,2.09-1.26,3.28-.16,5.47-.23,10.94-.34,16.41-.89.03-1.78.07-2.67.1Z"/>
  <path class="cls-15" d="M52.87,124.9c-.33-1.34-1.6-.83-2.41-1.24-.73-.37-1.54-.76-1.45-1.78.11-1.22,1.04-1.72,2.05-1.77,2.98-.14,5.97-.2,8.95-.16,1.73.02,4.34-.42,4.37,1.96.04,2.52-2.7,1.68-4.34,2.06-2.21,1.7-4.51,2.74-7.18.91Z"/>
  <path class="cls-1" d="M56.17,118.96c-2.03-.81-6.73,1.86-6.78-2.11-.04-2.95,4.63-1.43,7.22-1.75,1.62-.19,3.29-.12,4.92.02,1.27.11,2.92.25,2.93,1.94,0,1.7-1.51,1.88-2.88,1.89-1.64,0-3.29,0-5.41,0Z"/>
  <path class="cls-17" d="M52.87,124.9c2.39-.3,4.78-.61,7.18-.91.17,1.23,2.69,1.1,1.75,2.95-.65,1.28-1.92,1.07-3.05,1.09-1.81.02-3.66.22-5.41-.12-2.3-.45-2.78-1.62-.47-3Z"/>
  <path class="cls-3" d="M122.08,87.01c.28-1.62.92-3.78-1.47-3.91-2.86-.16-1.11,2.42-1.57,3.72-.68,1.91,1.52,5.5-1.75,5.59-3.56.1-1.79-3.55-1.91-5.51-.27-4.3-.09-8.62-.09-12.93,0-2.12-.54-4.57,3.01-4.26,3.02.26,7.52-.78,7.41,3.6-.15,5.94.68,11.83.32,17.73-.14,2.31-1.19,2.24-3.91-.32-1.32-1.22-1.15-2.46-.04-3.71Z"/>
  <path class="cls-12" d="M138.63,89.85c-1.67,2.37-3.86,3.61-6.8,2.82-1.9-.51-3.17-1.84-3.59-3.76-.22-1.01-.88-2.43.74-2.93,1.14-.35,2.4-.28,2.68,1.31.29,1.63,1.14,2.58,2.67,1.57,1.31-.87,1-2.62.3-3.6-1.42-2-3.34-3.64-4.87-5.57-1.89-2.39-2.4-5.11-.82-7.87,1.36-2.37,3.61-2.48,6.07-2.2,2.25.25,2.63,2.19,3.67,3.55.84,3.79.45,4.05-4.83,2.85,1.32,2.19,3.27,3.49,4.36,5.39,1.56,2.7,3.28,5.49.41,8.45Z"/>
  <path class="cls-13" d="M103.6,81.15c0-1.66,0-3.32,0-4.97-.03-6.96.24-7.19,7.22-6.45,1.16.12,2.47-.08,2.47,1.65,0,1.72-1.31,1.72-2.46,1.59-2.62-.28-3.93.4-3.81,3.44.1,2.45,1.29,2.67,3.14,2.57,1.1-.06,1.93.23,1.92,1.6-.01,1.37-.86,1.68-1.95,1.56-3.53-.39-2.87,2.07-3.05,4.19-.22,2.65,1.19,3.02,3.31,2.9,1.27-.07,2.9-.27,2.86,1.74-.03,2.01-1.69,1.61-2.94,1.7q-6.69.51-6.7-6.06c0-1.82,0-3.65,0-5.47Z"/>
  <path class="cls-20" d="M140.91,70.02c2.31-.69,3.87-.43,3.81,2.58-.1,5.78-.04,11.57-.06,17.35,0,1.16.08,2.39-1.47,2.72-1.38.29-2.24-.23-2.44-1.68-1.71-7-1.74-13.99.16-20.96Z"/>
  <path class="cls-5" d="M140.91,70.02c-.05,6.99-.1,13.98-.16,20.96-.71-.38-1.42-.76-2.13-1.14.98-4.17-.5-7.4-3.67-10.1-1.1-.94-2.1-2.14-2.78-3.41-.52-.96-.7-2.43.52-3.11,1.23-.68,2.24-.13,2.49,1.37.27,1.61,1.43,1.68,2.62,1.41,1.79-.41.8-1.82.88-2.84,1.5-.51.97-2.45,2.22-3.14Z"/>
  <path class="cls-14" d="M122.08,87.01c.01,1.24.02,2.47.04,3.71-.22,1.49-.2,2.91,1.2,3.88.93.65,2.17,1.37,1.79,2.56-.51,1.6-2.25.48-3.34.95-.51.01-1.03.02-1.54.04-.16-.04-.32-.07-.48-.11,2.12-3.4-1.83-8.07,2.33-11.04Z"/>
  <path class="cls-14" d="M136.04,99.24c-.04.58-.08,1.17-.12,1.75-4.51-1.52,1.09-4.64-1.35-6.49,4.31.69,3.52,2.57,1.46,4.74Z"/>
  <path class="cls-14" d="M112.8,96.11c.09,1.22-.54,1.77-1.69,1.79-1.05.02-1.95-.27-1.93-1.54.02-1.06.6-1.87,1.68-1.97,1.16-.12,1.66.72,1.94,1.73Z"/>
  <path class="cls-2" d="M73.08,82.99c.26,4.08-1.63,7.35-3.88,10.52-3.24,4.58-7.33,8.67-8.55,14.45-.42,2-1.98,2.06-3.48,1.84-1.46-.21-3.63,1.05-4.21-1.37-1.58-6.57-6.26-11.24-9.82-16.61-4.21-6.35-3.96-12.72.59-18.44,4.47-5.62,11.63-7.74,18.33-5.43,6.64,2.29,10.94,8.16,11.01,15.04Z"/>
  <path class="cls-9" d="M118.96,76.24c.38-1.07-.76-2.94,1.32-3.1,2.27-.18,1.96,1.73,2.02,3.13.05,1.34-.03,2.89-1.81,2.93-2.16.04-1.24-1.83-1.53-2.96Z"/>
  <path class="cls-21" d="M57.66,104.18c-2.23-1.16-2.4-2.35-2.27-3.5.49-4.18-1.02-7.09-5.12-8.47-1.44-.49-2.28-1.55-1.95-3.02.42-1.88,2.44-1.37,3.69-1.91,1.39-.59,2.14.62,2.18,1.91.05,1.73.89,3.21,2.41,3.25,1.67.05,2.16-1.66,2.43-3.24.28-1.59,1.28-2.72,3.03-2.75,1.55-.03,2.47,1.03,2.83,2.37.45,1.69-.33,2.93-2.01,3.44-5.82,1.77-4.64,7.1-5.23,11.93Z"/>
</svg>